<svg width="60" height="60" viewBox="0 0 60 60" fill="none" xmlns="http://www.w3.org/2000/svg">
<path d="M56.25 43.125V39.375H54.1017C53.9835 38.9776 53.8283 38.5963 53.6406 38.2344L55.3125 36.5625L52.5 33.75L50.8281 35.4219C50.4662 35.2343 50.0849 35.0791 49.6875 34.9608V32.8125H45.9375V34.9608C45.5401 35.079 45.1588 35.2342 44.7969 35.4219L43.125 33.75L40.3125 36.5625L41.9844 38.2344C41.7968 38.5963 41.6416 38.9776 41.5233 39.375H39.375V43.125H41.5233C41.6415 43.5224 41.7967 43.9037 41.9844 44.2656L40.3125 45.9375L43.125 48.75L44.7969 47.0781C45.1588 47.2657 45.5401 47.4209 45.9375 47.5392V49.6875H49.6875V47.5392C50.0849 47.421 50.4662 47.2658 50.8281 47.0781L52.5 48.75L55.3125 45.9375L53.6406 44.2656C53.8282 43.9037 53.9834 43.5224 54.1017 43.125H56.25Z" fill="#3397E8"/>
<path d="M47.8125 44.0625C49.3658 44.0625 50.625 42.8033 50.625 41.25C50.625 39.6967 49.3658 38.4375 47.8125 38.4375C46.2592 38.4375 45 39.6967 45 41.25C45 42.8033 46.2592 44.0625 47.8125 44.0625Z" fill="#DADCDE"/>
<path d="M20.625 20.625V16.875H18.4767C18.3585 16.4776 18.2033 16.0963 18.0156 15.7344L19.6875 14.0625L16.875 11.25L15.2031 12.9219C14.8412 12.7343 14.4599 12.5791 14.0625 12.4608V10.3125H10.3125V12.4608C9.91512 12.579 9.53379 12.7343 9.17191 12.9219L7.5 11.25L4.6875 14.0625L6.35941 15.7344C6.1718 16.0963 6.01664 16.4776 5.89828 16.875H3.75V20.625H5.89828C6.01664 21.0224 6.17168 21.4037 6.35941 21.7656L4.6875 23.4375L7.5 26.25L9.17191 24.5781C9.53379 24.7657 9.91512 24.9209 10.3125 25.0392V27.1875H14.0625V25.0392C14.4599 24.921 14.8411 24.7658 15.2031 24.5781L16.875 26.25L19.6875 23.4375L18.0156 21.7656C18.2032 21.4037 18.3584 21.0224 18.4767 20.625H20.625Z" fill="#3397E8"/>
<path d="M12.1875 21.5625C13.7408 21.5625 15 20.3033 15 18.75C15 17.1967 13.7408 15.9375 12.1875 15.9375C10.6342 15.9375 9.375 17.1967 9.375 18.75C9.375 20.3033 10.6342 21.5625 12.1875 21.5625Z" fill="#DADCDE"/>
<path d="M46.875 6.5625H13.125C12.0894 6.5625 11.25 5.72309 11.25 4.6875C11.25 3.65191 12.0894 2.8125 13.125 2.8125H46.875C47.9106 2.8125 48.75 3.65191 48.75 4.6875C48.75 5.72309 47.9106 6.5625 46.875 6.5625Z" fill="#FFD33A"/>
<path d="M46.875 57.1875H13.125C12.0894 57.1875 11.25 56.3481 11.25 55.3125C11.25 54.2769 12.0894 53.4375 13.125 53.4375H46.875C47.9106 53.4375 48.75 54.2769 48.75 55.3125C48.75 56.3481 47.9106 57.1875 46.875 57.1875Z" fill="#FFD33A"/>
<path d="M43.125 21.5625C45.9375 17.8125 46.875 6.5625 46.875 6.5625H13.125C13.125 6.5625 14.0625 17.8125 16.875 21.5625C19.6875 25.3125 24.375 27.1875 24.375 27.1875V32.8125C24.375 32.8125 19.6875 34.6875 16.875 38.4375C14.0625 42.1875 13.125 53.4375 13.125 53.4375H46.875C46.875 53.4375 45.9375 42.1875 43.125 38.4375C40.3125 34.6875 35.625 32.8125 35.625 32.8125V27.1875C35.625 27.1875 40.3125 25.3125 43.125 21.5625Z" fill="#E9EEF2"/>
<path d="M30 42.1875C17.8125 42.1875 16.875 53.4375 16.875 53.4375H43.125C43.125 53.4375 42.1875 42.1875 30 42.1875Z" fill="#FFB632"/>
<path d="M31.8746 30.9375C31.8746 31.9731 31.0352 32.8125 29.9996 32.8125C28.964 32.8125 28.1246 31.9731 28.1246 30.9375V27.1875C28.1246 25.6465 27.2082 24.273 25.775 23.7082C25.6027 23.6367 21.9547 22.0863 19.8746 19.3125C19.4 18.6809 18.9336 17.4633 18.5117 15.9375H41.4875C41.0656 17.4633 40.5992 18.6809 40.1246 19.3125C38.0445 22.0863 34.3977 23.6367 34.2242 23.7082C32.791 24.273 31.8746 25.6465 31.8746 27.1875V30.9375Z" fill="#FFB632"/>
</svg>
