<svg width="20" height="21" viewBox="0 0 20 21" fill="none" xmlns="http://www.w3.org/2000/svg">
<path d="M4.36502 11.4287C3.67056 11.3207 3.32333 11.2666 3.22727 11.0739C3.19757 11.0143 3.18259 10.9485 3.18356 10.8819C3.18672 10.6666 3.47633 10.4676 4.05555 10.0695L13.0575 3.88323C13.9321 3.28219 14.3694 2.98167 14.5887 3.09048C14.6552 3.12346 14.7117 3.17361 14.7523 3.23573C14.8863 3.44067 14.6396 3.91045 14.1463 4.85001L12.1931 8.56978C12.0102 8.91806 11.9188 9.0922 11.9576 9.24659C11.97 9.29588 11.9913 9.34249 12.0205 9.38411C12.1119 9.51447 12.3034 9.55923 12.6865 9.64876L15.7231 10.3585C16.3878 10.5138 16.7201 10.5915 16.8023 10.7879C16.8278 10.8487 16.8384 10.9146 16.8334 10.9803C16.8173 11.1926 16.5264 11.3711 15.9446 11.7281L6.83966 17.3141C5.96808 17.8489 5.53228 18.1162 5.31987 17.999C5.25538 17.9634 5.20148 17.9114 5.16365 17.8482C5.03906 17.64 5.29098 17.1951 5.79481 16.3053L7.68229 12.9719C7.89632 12.5939 8.00333 12.4049 7.96018 12.241C7.94647 12.189 7.92281 12.1401 7.89051 12.097C7.78877 11.9614 7.57417 11.928 7.14496 11.8613L4.36502 11.4287Z" stroke="white" stroke-width="1.25" stroke-linejoin="round"/>
</svg>
