<svg width="60" height="60" viewBox="0 0 60 60" fill="none" xmlns="http://www.w3.org/2000/svg">
<path d="M51.875 16.0251V52.5001C51.8803 53.1525 51.7259 53.7962 51.4252 54.3751C51.0767 55.1222 50.5222 55.7543 49.8269 56.1971C49.1316 56.64 48.3243 56.8752 47.5 56.8751H12.5C11.3414 56.8696 10.2318 56.4069 9.41254 55.5876C8.59327 54.7683 8.13055 53.6588 8.125 52.5001V7.50014C8.12502 6.67583 8.36026 5.86863 8.8031 5.17337C9.24594 4.47811 9.87799 3.92366 10.625 3.57514C11.2038 3.2742 11.8476 3.11969 12.5 3.12514H38.9752C39.5465 3.12444 40.1123 3.23673 40.6401 3.45554C41.1678 3.67436 41.647 3.99538 42.0502 4.40014L50.6 12.9501C51.4119 13.7682 51.8698 14.8726 51.875 16.0251Z" fill="#3A97ED"/>
<path d="M51.875 16.0251V52.5001C51.8803 53.1525 51.7259 53.7962 51.4252 54.3751H24.7498C21.0063 54.3662 17.4188 52.8752 14.7718 50.2281C12.1248 47.5811 10.6339 43.9936 10.625 40.2501V3.57514C11.2038 3.2742 11.8476 3.11969 12.5 3.12514H38.9752C39.5465 3.12444 40.1123 3.23673 40.6401 3.45554C41.1678 3.67436 41.647 3.99538 42.0502 4.40014L50.6 12.9501C51.4119 13.7682 51.8698 14.8726 51.875 16.0251Z" fill="#55A4F9"/>
<path d="M51.875 16.025V18.125H41.25C40.6751 18.1265 40.1055 18.0143 39.574 17.795C39.0426 17.5756 38.5597 17.2534 38.1532 16.8469C37.7466 16.4403 37.4244 15.9574 37.2051 15.426C36.9857 14.8945 36.8736 14.3249 36.875 13.75V3.125H38.9752C39.5465 3.1243 40.1123 3.23659 40.6401 3.45541C41.1678 3.67422 41.6471 3.99525 42.0502 4.4L50.6 12.95C51.4119 13.7681 51.8698 14.8725 51.875 16.025Z" fill="#0A66EA"/>
<path d="M41.25 46.8755H31.25C30.7527 46.8755 30.2758 46.6779 29.9242 46.3263C29.5725 45.9747 29.375 45.4978 29.375 45.0005C29.375 44.5032 29.5725 44.0263 29.9242 43.6747C30.2758 43.323 30.7527 43.1255 31.25 43.1255H41.25C41.7473 43.1255 42.2242 43.323 42.5758 43.6747C42.9275 44.0263 43.125 44.5032 43.125 45.0005C43.125 45.4978 42.9275 45.9747 42.5758 46.3263C42.2242 46.6779 41.7473 46.8755 41.25 46.8755Z" fill="white"/>
<path d="M41.25 36.8755H31.25C30.7527 36.8755 30.2758 36.6779 29.9242 36.3263C29.5725 35.9747 29.375 35.4978 29.375 35.0005C29.375 34.5032 29.5725 34.0263 29.9242 33.6747C30.2758 33.323 30.7527 33.1255 31.25 33.1255H41.25C41.7473 33.1255 42.2242 33.323 42.5758 33.6747C42.9275 34.0263 43.125 34.5032 43.125 35.0005C43.125 35.4978 42.9275 35.9747 42.5758 36.3263C42.2242 36.6779 41.7473 36.8755 41.25 36.8755Z" fill="white"/>
<path d="M40 24.3755H31.25C30.7527 24.3755 30.2758 24.1779 29.9242 23.8263C29.5725 23.4747 29.375 22.9978 29.375 22.5005C29.375 22.0032 29.5725 21.5263 29.9242 21.1747C30.2758 20.823 30.7527 20.6255 31.25 20.6255H40C40.4973 20.6255 40.9742 20.823 41.3258 21.1747C41.6775 21.5263 41.875 22.0032 41.875 22.5005C41.875 22.9978 41.6775 23.4747 41.3258 23.8263C40.9742 24.1779 40.4973 24.3755 40 24.3755Z" fill="white"/>
<path d="M19.9999 24.3753C19.7536 24.3758 19.5096 24.3274 19.2821 24.2331C19.0546 24.1389 18.848 24.0005 18.6742 23.826L16.1742 21.326C15.8247 20.974 15.629 20.4978 15.6299 20.0018C15.6308 19.5057 15.8282 19.0302 16.179 18.6795C16.5298 18.3287 17.0052 18.1313 17.5013 18.1304C17.9973 18.1295 18.4735 18.3252 18.8255 18.6747L19.9999 19.849L23.6742 16.1747C24.0262 15.8252 24.5024 15.6295 24.9984 15.6304C25.4945 15.6313 25.97 15.8287 26.3207 16.1795C26.6715 16.5302 26.8689 17.0057 26.8698 17.5018C26.8707 17.9978 26.675 18.474 26.3255 18.826L21.3255 23.826C21.1517 24.0005 20.9451 24.1389 20.7176 24.2331C20.4901 24.3274 20.2461 24.3758 19.9999 24.3753Z" fill="white"/>
<path d="M19.9999 36.8753C19.7536 36.8758 19.5096 36.8274 19.2821 36.7331C19.0546 36.6389 18.848 36.5005 18.6742 36.326L16.1742 33.826C15.8247 33.474 15.629 32.9978 15.6299 32.5018C15.6308 32.0057 15.8282 31.5302 16.179 31.1795C16.5298 30.8287 17.0052 30.6313 17.5013 30.6304C17.9973 30.6295 18.4735 30.8252 18.8255 31.1747L19.9999 32.349L23.6742 28.6747C24.0262 28.3252 24.5024 28.1295 24.9984 28.1304C25.4945 28.1313 25.97 28.3287 26.3207 28.6795C26.6715 29.0302 26.8689 29.5057 26.8698 30.0018C26.8707 30.4978 26.675 30.974 26.3255 31.326L21.3255 36.326C21.1517 36.5005 20.9451 36.6389 20.7176 36.7331C20.4901 36.8274 20.2461 36.8758 19.9999 36.8753Z" fill="white"/>
<path d="M19.9999 49.3753C19.7536 49.3758 19.5096 49.3274 19.2821 49.2332C19.0546 49.1389 18.848 49.0005 18.6742 48.826L16.1742 46.326C15.8247 45.974 15.629 45.4978 15.6299 45.0018C15.6308 44.5057 15.8282 44.0302 16.179 43.6795C16.5298 43.3287 17.0052 43.1313 17.5013 43.1304C17.9973 43.1295 18.4735 43.3252 18.8255 43.6747L19.9999 44.849L23.6742 41.1747C24.0262 40.8252 24.5024 40.6295 24.9984 40.6304C25.4945 40.6313 25.97 40.8287 26.3207 41.1795C26.6715 41.5302 26.8689 42.0057 26.8698 42.5018C26.8707 42.9978 26.675 43.474 26.3255 43.826L21.3255 48.826C21.1517 49.0005 20.9451 49.1389 20.7176 49.2332C20.4901 49.3274 20.2461 49.3758 19.9999 49.3753Z" fill="white"/>
</svg>
