<svg width="60" height="60" viewBox="0 0 60 60" fill="none" xmlns="http://www.w3.org/2000/svg">
<g clip-path="url(#clip0_37_31)">
<path d="M37.1604 41.5358L36.9404 30.6656C40.7838 30.6193 45.7963 29.809 50.1143 29.4501C50.1027 29.0797 50.149 28.7092 50.2532 28.3504C50.3342 28.0147 50.4731 27.6905 50.6468 27.4011C51.295 26.4056 53.0431 26.012 53.6798 27.1812L56.9211 36.4769L55.1268 43.4343C55.0573 43.7237 54.93 43.99 54.7679 44.2331C54.7679 44.2331 54.2007 45.1707 53.6566 45.9927H39.1862C37.936 44.8466 37.2067 43.2375 37.1604 41.5358Z" fill="#EFCDB1"/>
<path d="M54.7563 50.2758C54.7679 50.6926 54.3395 51.0167 53.807 51.0283H51.9201L38.7578 51.1325C38.2253 51.1325 37.7854 50.8084 37.7854 50.4032L37.7275 46.6177C37.7275 46.2126 38.1559 45.8768 38.6884 45.8768L51.9201 45.7727L53.726 45.7495C54.2701 45.7495 54.6984 46.0736 54.71 46.4788L54.7563 50.2758Z" fill="#D1D0DF"/>
<path d="M54.7561 50.276C54.7677 50.6927 54.3394 51.0169 53.8069 51.0285H51.9199V45.7844L53.7258 45.7612C54.2699 45.7612 54.6982 46.0854 54.7098 46.4905L54.7561 50.276Z" fill="#B5B5C6"/>
<path d="M56.389 59.8729H39.1172C44.9401 59.8729 50.0452 56.6778 52.8583 50.9939L56.2501 50.9707L56.389 59.8729Z" fill="#EFB703"/>
<path d="M52.8578 50.9937C50.0448 56.6776 44.9396 59.8727 39.1168 59.8727H36.4426L36.3037 51.121L52.8578 50.9937Z" fill="#FFC700"/>
<path d="M31.4767 33.2242L35.3084 41.9296L57.7317 32.0666C58.8315 31.592 59.3293 30.307 58.8431 29.2188C58.8431 29.2188 58.8431 29.2188 58.8431 29.2073L49.1421 7.13124L40.101 11.1135C39.9158 11.1945 39.7074 11.1135 39.6264 10.9283C39.6032 10.8704 39.5917 10.8009 39.6032 10.7315C39.719 9.78221 39.8348 7.98788 39.1981 6.8534C38.0173 4.74652 35.3547 3.99406 33.2478 5.17484C31.141 6.35562 30.3885 9.01817 31.5693 11.1251C32.1365 12.1322 33.0742 12.8731 34.1855 13.1972C34.3244 13.2319 34.4171 13.3709 34.3823 13.5098C34.3592 13.6024 34.3013 13.6719 34.2203 13.7066L24.7393 17.8625L28.8952 27.3203C28.9415 27.4592 29.0919 27.5287 29.2309 27.4824C29.3119 27.4477 29.3814 27.3782 29.4045 27.2972C30.0759 24.9703 32.4954 23.6275 34.8222 24.2989C37.1491 24.9703 38.4919 27.3898 37.8205 29.7166C37.5079 30.8279 36.7555 31.7656 35.7483 32.3329C34.6023 32.9696 32.8079 32.8538 31.8587 32.7265C31.6503 32.7149 31.4767 32.8654 31.4651 33.0737C31.4419 33.1085 31.4535 33.1664 31.4767 33.2242Z" fill="#FFC700"/>
<path d="M31.9512 34.3007L35.3083 41.9295L57.7316 32.0664C58.8314 31.5918 59.3291 30.3068 58.8429 29.2187C58.8429 29.2187 58.8429 29.2187 58.8429 29.2071L58.4609 28.3389C57.5001 28.8366 56.5161 29.3113 55.509 29.7512C48.1001 33.0157 40.043 34.5669 31.9512 34.3007Z" fill="#EFB703"/>
<path d="M47.8916 39.0235C48.1231 38.5142 48.401 37.9701 48.7251 37.3913C49.6628 35.759 51.295 35.0876 51.295 35.0876C51.295 35.0876 50.5889 30.8275 50.3689 29.4036C50.2184 28.4081 50.4037 27.3893 50.9014 26.5096C51.5844 25.4445 53.3672 25.0046 54.0155 26.2201L57.1295 35.9674L55.1615 43.3531" fill="#EFCDB1"/>
<path d="M22.8985 19.7259L23.1184 30.5961C19.2751 30.6308 14.2625 31.4527 9.94456 31.8116C9.94456 32.182 9.89826 32.5525 9.80565 32.9113C9.72461 33.247 9.5857 33.5596 9.41205 33.8606C8.76378 34.8562 7.01576 35.2498 6.36748 34.0805L3.1377 24.7848L4.93202 17.8274C5.00148 17.538 5.12882 17.2602 5.29089 17.0171C5.29089 17.0171 5.85813 16.091 6.40221 15.269H20.8726C22.1228 16.4151 22.8637 18.0242 22.8985 19.7259Z" fill="#EFCDB1"/>
<path d="M22.3313 14.6322L22.2735 10.8352C22.2735 10.43 21.8336 10.1059 21.3011 10.1175L6.25185 10.2333C5.71934 10.2333 5.29102 10.569 5.29102 10.9741L5.3489 14.7596C5.3489 15.1763 5.7888 15.5005 6.32131 15.4889L21.3705 15.3731C21.903 15.3731 22.3313 15.0374 22.3313 14.6322Z" fill="#D1D0DF"/>
<path d="M8.13893 15.4543H6.02047C5.62687 15.4543 5.30273 15.1301 5.30273 14.7365V14.7249V11.1363C5.30273 10.6617 5.69633 10.2681 6.17096 10.2681H8.13893V15.4543Z" fill="#B5B5C6"/>
<path d="M3.66992 0H20.9418C15.1189 0 10.0137 4.57264 7.2007 10.2682L3.79726 10.2913L3.66992 0Z" fill="#035D7C"/>
<path d="M7.20117 10.2682C10.0142 4.57264 15.1194 0 20.9422 0H23.6164L23.7437 10.1293L7.20117 10.2682Z" fill="#02648E"/>
<path d="M37.7045 27.158C38.318 29.126 37.473 31.256 35.6902 32.2748C34.5442 32.9115 32.7498 32.8188 31.8006 32.7031C31.6038 32.6799 31.4301 32.8188 31.407 33.0156C31.3954 33.0735 31.407 33.143 31.4301 33.2009L34.8567 40.8644C35.204 41.64 34.8567 42.5545 34.0811 42.9018L26.0703 46.4905C25.943 46.5599 25.7809 46.502 25.7114 46.3747C25.6767 46.2937 25.6767 46.2011 25.7114 46.1316C26.7765 43.9553 25.8735 41.339 23.6972 40.274C21.5208 39.209 18.9046 40.1119 17.8395 42.2883C17.3302 43.3186 17.2607 44.5109 17.6196 45.5991C18.0363 46.8378 19.4487 47.9491 20.2358 48.5047C20.3979 48.6321 20.4326 48.8636 20.3053 49.0257C20.2706 49.072 20.2243 49.1067 20.178 49.1299L11.16 53.1584L1.15809 30.8046C0.671884 29.7048 1.15809 28.4199 2.25784 27.9221L23.4078 18.4642C24.056 18.1632 24.8316 18.4527 25.121 19.1125C25.121 19.1125 25.121 19.1241 25.1326 19.1241C26.105 21.312 28.0035 25.5374 28.8023 27.3201C28.8486 27.459 29.0107 27.5285 29.1496 27.4822C29.2306 27.4474 29.3001 27.378 29.3117 27.2854C29.9599 24.9585 32.3794 23.5925 34.7062 24.2408C36.1301 24.646 37.2646 25.7457 37.7045 27.158Z" fill="#D22732"/>
<path d="M35.6898 32.2748C34.5437 32.9115 32.7494 32.8188 31.8001 32.7031C31.6033 32.6799 31.4297 32.8188 31.4065 33.0156C31.3949 33.0735 31.4065 33.143 31.4297 33.2009L34.8563 40.8644C35.2036 41.64 34.8563 42.5545 34.0807 42.9018L26.0583 46.502C25.9309 46.5599 25.7689 46.5136 25.6994 46.3747C25.6647 46.2937 25.6647 46.2011 25.711 46.1316C26.776 43.9553 25.873 41.339 23.6967 40.274C21.5204 39.209 18.9041 40.1119 17.8391 42.2883C17.3297 43.3186 17.2603 44.5109 17.6191 45.5991C18.0359 46.8378 19.4482 47.9607 20.2354 48.5047C20.3975 48.6321 20.4322 48.8636 20.3048 49.0257C20.2701 49.072 20.2238 49.1067 20.1775 49.1299L11.1596 53.1584L8.80957 47.9028C16.4384 42.2998 21.5204 32.2748 21.5204 20.8489C21.5204 20.328 21.5088 19.8187 21.4856 19.3093L23.3957 18.4642C24.044 18.1632 24.8196 18.4527 25.109 19.1125C25.109 19.1125 25.109 19.1241 25.1206 19.1241C26.093 21.312 27.9915 25.5374 28.7903 27.3201C28.8366 27.459 28.9987 27.5285 29.1376 27.4822C29.2186 27.4474 29.2881 27.378 29.2996 27.2854C29.9479 24.9585 32.3674 23.5925 34.6942 24.2408C36.1297 24.6344 37.2526 25.7341 37.6925 27.158C38.306 29.126 37.4725 31.2445 35.6898 32.2748Z" fill="#C11F2F"/>
<path d="M12.1676 22.2382C11.9361 22.736 11.6582 23.2917 11.3225 23.8705C10.3964 25.5027 8.76415 26.1742 8.76415 26.1742C8.76415 26.1742 9.4703 30.4343 9.69025 31.8581C9.84074 32.8537 9.65552 33.8724 9.15774 34.7522C8.47474 35.8057 6.68041 36.2571 6.04371 35.0416L2.92969 25.2828L4.89766 17.9087" fill="#EFCDB1"/>
<path d="M14.6123 55.0547L15.8473 54.4171L17.4519 57.5251L16.217 58.1627L14.6123 55.0547Z" fill="#808285"/>
<path d="M4.5918 57.5806L6.19648 54.4726L7.43144 55.1102L5.82676 58.2182L4.5918 57.5806Z" fill="#808285"/>
<path d="M10.2676 59.895L10.3515 56.399L11.7406 56.4323L11.6567 59.9284L10.2676 59.895Z" fill="#808285"/>
<path d="M43.9756 2.57129L45.2105 1.93367L46.8152 5.04165L45.5803 5.67927L43.9756 2.57129Z" fill="#808285"/>
<path d="M54.0049 5.07764L55.6096 1.96965L56.8445 2.60728L55.2398 5.71526L54.0049 5.07764Z" fill="#808285"/>
<path d="M49.5762 3.62012L49.6601 0.124071L51.0492 0.157411L50.9653 3.65346L49.5762 3.62012Z" fill="#808285"/>
</g>
<defs>
<clipPath id="clip0_37_31">
<rect width="60" height="60" fill="white"/>
</clipPath>
</defs>
</svg>
