<svg width="122" height="50" viewBox="0 0 122 50" fill="none" xmlns="http://www.w3.org/2000/svg">
<path d="M2.91681 35.4164V17.9418L15.3112 10.8596L27.7086 17.9418V32.0569L15.3112 39.1404L8.75 35.3906V21.3267L15.3112 17.5774L21.875 21.3267V28.6715L15.3112 32.4213L14.5836 32.0057V24.7126L18.2507 22.6161L15.3112 20.9369L11.6668 23.0208V33.6975L15.3112 35.7809L24.7918 30.3633V19.6349L15.3112 14.2191L5.83362 19.6349V37.0824L15.3112 42.5L30.625 33.75V16.25L15.3112 7.5L0 16.25V33.75L2.91681 35.4164Z" fill="url(#paint0_linear_11_82)"/>
<path d="M48.945 37.9C41.065 37.9 35.825 32.46 35.825 24.1C35.825 15.74 41.465 10.3 50.025 10.3C57.625 10.3 62.905 14.14 62.905 20.34V20.66H58.145V20.34C58.145 16.5 55.465 14.42 49.905 14.42C43.465 14.42 40.385 17.42 40.385 24.1C40.385 30.78 43.425 33.74 49.705 33.74C56.105 33.74 58.625 31.98 58.625 27.46V27.1H48.705V23.82H62.905V37.5H58.985V31.7H58.705C57.585 35.62 54.185 37.9 48.945 37.9ZM70.8669 37.5H66.5469V10.7H70.8669V37.5ZM79.1872 15.3H74.8672V10.7H79.1872V15.3ZM79.1872 37.5H74.8672V17.62H79.1872V37.5ZM87.5075 37.5H83.1875V17.62H87.1475V23.78H87.4275C88.0275 20.42 90.6675 17.22 95.7075 17.22C101.228 17.22 103.948 20.94 103.948 25.54V37.5H99.6275V26.7C99.6275 22.98 97.9475 21.1 93.8275 21.1C89.4675 21.1 87.5075 23.34 87.5075 27.66V37.5ZM120.837 37.5H116.277C111.997 37.5 109.357 35.62 109.357 30.78V21.22H105.997V17.62H109.357V13.26H113.637V17.62H120.837V21.22H113.637V30.54C113.637 32.98 114.757 33.62 117.237 33.62H120.837V37.5Z" fill="white"/>
<defs>
<linearGradient id="paint0_linear_11_82" x1="15.3125" y1="7.5" x2="-10.5" y2="65" gradientUnits="userSpaceOnUse">
<stop stop-color="#5B5EBD"/>
<stop offset="1" stop-color="#5B5EBD" stop-opacity="0.5"/>
</linearGradient>
</defs>
</svg>
