<svg width="80" height="55" viewBox="0 0 80 55" fill="none" xmlns="http://www.w3.org/2000/svg">
<path d="M70.9758 0H9.02422C6.80172 0 5 1.80172 5 4.02422V47.5L40 52.5L75 47.5V4.02422C75 1.80172 73.1983 0 70.9758 0Z" fill="#B2CAEC"/>
<path d="M49.5423 47.9577L48.6786 48.8214C47.9239 49.5761 46.9003 50 45.8331 50H34.1669C33.0995 50 32.0761 49.5761 31.3214 48.8214L30.4577 47.9577C30.1647 47.6647 29.7672 47.5 29.3528 47.5H1.20719C0.540469 47.5 0 48.0405 0 48.7072V50.9758C0 53.1983 1.80172 55 4.02422 55H75.9759C78.1983 55 80 53.1983 80 50.9758V48.7072C80 48.0405 79.4595 47.5 78.7928 47.5H50.6472C50.2328 47.5 49.8353 47.6647 49.5423 47.9577Z" fill="#D3E1F5"/>
<path d="M69.2188 42.5H10.7812C10.3498 42.5 10 42.1502 10 41.7188V5.78125C10 5.34984 10.3498 5 10.7812 5H69.2188C69.6502 5 70 5.34984 70 5.78125V41.7188C70 42.1502 69.6502 42.5 69.2188 42.5Z" fill="#01C0FA"/>
<path d="M63.5614 5V27.2258C63.5614 33.8836 58.1642 39.2808 51.5064 39.2808H10V41.7188C10 42.1502 10.3498 42.5 10.7812 42.5H69.2188C69.6502 42.5 70 42.1502 70 41.7188V5.78125C70 5.34984 69.6502 5 69.2188 5H63.5614Z" fill="#08A9F1"/>
<path d="M20.9758 47.5H4.02422C1.80172 47.5 0 45.6983 0 43.4759V14.0242C0 11.8017 1.80172 10 4.02422 10H20.9759C23.1983 10 25 11.8017 25 14.0242V43.4759C25 45.6983 23.1983 47.5 20.9758 47.5Z" fill="#0573CE"/>
<path d="M15.7047 15C15.3323 15 15.0148 15.257 14.9231 15.6178C14.6481 16.6997 13.6675 17.5 12.5 17.5C11.3325 17.5 10.3519 16.6997 10.0769 15.6178C9.98516 15.257 9.6675 15 9.29531 15H5.80484C5.36031 15 5 15.3603 5 15.8048V41.6952C5 42.1397 5.36031 42.5 5.80484 42.5H19.1952C19.6397 42.5 20 42.1397 20 41.6952V15.8048C20 15.3603 19.6397 15 19.1952 15H15.7047Z" fill="#01C0FA"/>
<path d="M11.6667 31.5887C11.3559 31.5887 11.0578 31.4652 10.8381 31.2454L9.17137 29.5787C8.71371 29.121 8.71371 28.379 9.17137 27.9215C9.62902 27.464 10.3711 27.464 10.8286 27.9216L11.6665 28.7596L14.1712 26.2547C14.6289 25.7972 15.3709 25.7972 15.8284 26.2547C16.2861 26.7126 16.2861 27.4544 15.8284 27.9121L12.4953 31.2455C12.2754 31.4652 11.9775 31.5887 11.6667 31.5887Z" fill="#DFF6FD"/>
</svg>
