<svg width="30" height="30" viewBox="0 0 30 30" fill="none" xmlns="http://www.w3.org/2000/svg">
<path d="M12.1875 3.75C12.1875 3.23223 11.7678 2.8125 11.25 2.8125C10.7322 2.8125 10.3125 3.23223 10.3125 3.75H12.1875ZM19.6875 3.75C19.6875 3.23223 19.2678 2.8125 18.75 2.8125C18.2322 2.8125 17.8125 3.23223 17.8125 3.75H19.6875ZM12.1875 6.25V3.75H10.3125V6.25H12.1875ZM19.6875 6.25V3.75H17.8125V6.25H19.6875Z" fill="white"/>
<path fill-rule="evenodd" clip-rule="evenodd" d="M27.1875 13.4375V16.1458C27.1875 20.4356 27.1875 22.5805 26.1792 24.1332C25.7022 24.8677 25.0761 25.4938 24.3415 25.9709C22.7888 26.9792 20.6439 26.9792 16.3542 26.9792H13.6458C9.35606 26.9792 7.21116 26.9792 5.6585 25.9709C4.92394 25.4938 4.29784 24.8677 3.82081 24.1332C2.8125 22.5805 2.8125 20.4356 2.8125 16.1458V13.4375C2.8125 11.6943 2.8125 10.8228 2.98519 10.1035C3.53384 7.81816 5.31816 6.03384 7.60347 5.48519C8.32276 5.3125 9.19434 5.3125 10.9375 5.3125H19.0625C20.8057 5.3125 21.6772 5.3125 22.3965 5.48519C24.6818 6.03384 26.4662 7.81816 27.0148 10.1035C27.1875 10.8228 27.1875 11.6943 27.1875 13.4375ZM10 10.625C9.30964 10.625 8.75 11.1846 8.75 11.875C8.75 12.5654 9.30964 13.125 10 13.125C10.6904 13.125 11.25 12.5654 11.25 11.875C11.25 11.1846 10.6904 10.625 10 10.625ZM15 10.625C14.3096 10.625 13.75 11.1846 13.75 11.875C13.75 12.5654 14.3096 13.125 15 13.125C15.6904 13.125 16.25 12.5654 16.25 11.875C16.25 11.1846 15.6904 10.625 15 10.625ZM13.75 20.625C13.75 19.9346 14.3096 19.375 15 19.375C15.6904 19.375 16.25 19.9346 16.25 20.625C16.25 21.3154 15.6904 21.875 15 21.875C14.3096 21.875 13.75 21.3154 13.75 20.625ZM20 19.375C19.3096 19.375 18.75 19.9346 18.75 20.625C18.75 21.3154 19.3096 21.875 20 21.875C20.6904 21.875 21.25 21.3154 21.25 20.625C21.25 19.9346 20.6904 19.375 20 19.375Z" fill="white"/>
</svg>
