<svg width="30" height="30" viewBox="0 0 30 30" fill="none" xmlns="http://www.w3.org/2000/svg">
<path d="M15 15L8.5 15C7.56257 15 7.09385 15 6.76527 15.2387C6.65915 15.3158 6.56583 15.4092 6.48873 15.5153C6.25 15.8439 6.25 16.3126 6.25 17.25V19.0625M15 15V19.0625M15 15L15 10.9375M15 15L21.5 15C22.4374 15 22.9061 15 23.2347 15.2387C23.3408 15.3158 23.4342 15.4092 23.5113 15.5153C23.75 15.8439 23.75 16.3126 23.75 17.25L23.75 19.0625" stroke="white" stroke-width="2.5" stroke-linejoin="round"/>
<path d="M15 10.9375C15.8722 10.9375 16.3083 10.9375 16.6632 10.8299C17.4622 10.5875 18.0875 9.96222 18.3299 9.16321C18.4375 8.80834 18.4375 8.37223 18.4375 7.5V7.5C18.4375 6.62777 18.4375 6.19166 18.3299 5.83679C18.0875 5.03778 17.4622 4.41252 16.6632 4.17015C16.3083 4.0625 15.8722 4.0625 15 4.0625V4.0625C14.1278 4.0625 13.6917 4.0625 13.3368 4.17015C12.5378 4.41252 11.9125 5.03778 11.6702 5.83679C11.5625 6.19166 11.5625 6.62777 11.5625 7.5V7.5C11.5625 8.37223 11.5625 8.80834 11.6702 9.16321C11.9125 9.96222 12.5378 10.5875 13.3368 10.8299C13.6917 10.9375 14.1278 10.9375 15 10.9375V10.9375Z" fill="white"/>
<path d="M15 25.9375C15.8722 25.9375 16.3083 25.9375 16.6632 25.8299C17.4622 25.5875 18.0875 24.9622 18.3299 24.1632C18.4375 23.8083 18.4375 23.3722 18.4375 22.5V22.5C18.4375 21.6278 18.4375 21.1917 18.3299 20.8368C18.0875 20.0378 17.4622 19.4125 16.6632 19.1702C16.3083 19.0625 15.8722 19.0625 15 19.0625V19.0625C14.1278 19.0625 13.6917 19.0625 13.3368 19.1702C12.5378 19.4125 11.9125 20.0378 11.6702 20.8368C11.5625 21.1917 11.5625 21.6278 11.5625 22.5V22.5C11.5625 23.3722 11.5625 23.8083 11.6702 24.1632C11.9125 24.9622 12.5378 25.5875 13.3368 25.8299C13.6917 25.9375 14.1278 25.9375 15 25.9375V25.9375Z" fill="white"/>
<path d="M23.75 25.9375C24.6222 25.9375 25.0583 25.9375 25.4132 25.8299C26.2122 25.5875 26.8375 24.9622 27.0799 24.1632C27.1875 23.8083 27.1875 23.3722 27.1875 22.5V22.5C27.1875 21.6278 27.1875 21.1917 27.0799 20.8368C26.8375 20.0378 26.2122 19.4125 25.4132 19.1702C25.0583 19.0625 24.6222 19.0625 23.75 19.0625V19.0625C22.8778 19.0625 22.4417 19.0625 22.0868 19.1702C21.2878 19.4125 20.6625 20.0378 20.4202 20.8368C20.3125 21.1917 20.3125 21.6278 20.3125 22.5V22.5C20.3125 23.3722 20.3125 23.8083 20.4202 24.1632C20.6625 24.9622 21.2878 25.5875 22.0868 25.8299C22.4417 25.9375 22.8778 25.9375 23.75 25.9375V25.9375Z" fill="white"/>
<path d="M6.25 25.9375C7.12223 25.9375 7.55834 25.9375 7.91321 25.8299C8.71222 25.5875 9.33748 24.9622 9.57985 24.1632C9.6875 23.8083 9.6875 23.3722 9.6875 22.5V22.5C9.6875 21.6278 9.6875 21.1917 9.57985 20.8368C9.33748 20.0378 8.71222 19.4125 7.91321 19.1702C7.55834 19.0625 7.12223 19.0625 6.25 19.0625V19.0625C5.37777 19.0625 4.94166 19.0625 4.58679 19.1702C3.78778 19.4125 3.16252 20.0378 2.92015 20.8368C2.8125 21.1917 2.8125 21.6278 2.8125 22.5V22.5C2.8125 23.3722 2.8125 23.8083 2.92015 24.1632C3.16252 24.9622 3.78778 25.5875 4.58679 25.8299C4.94166 25.9375 5.37777 25.9375 6.25 25.9375V25.9375Z" fill="white"/>
</svg>
