<svg width="30" height="30" viewBox="0 0 30 30" fill="none" xmlns="http://www.w3.org/2000/svg">
<path fill-rule="evenodd" clip-rule="evenodd" d="M17.4986 5.36617C20.4022 6.35646 22.4082 9.2323 22.1239 12.4735C21.9644 14.2911 22.5343 16.0976 23.7079 17.4947L24.3217 18.2255C25.9512 20.1654 24.5721 23.125 22.0386 23.125H17.8279H12.17H7.96107C5.42758 23.125 4.04843 20.1654 5.67795 18.2255L6.2918 17.4947C7.46538 16.0976 8.03524 14.2911 7.8758 12.4735C7.59157 9.2332 9.59634 6.35807 12.4986 5.367V5.3125C12.4986 3.93179 13.6179 2.8125 14.9986 2.8125C16.3793 2.8125 17.4986 3.93179 17.4986 5.3125V5.36617ZM12.4998 25C12.4998 26.3807 13.6191 27.5 14.9998 27.5C16.3805 27.5 17.4998 26.3807 17.4998 25H12.4998Z" fill="white"/>
<path d="M22.0817 6.24975C23.7456 7.56354 24.6947 9.40783 24.8786 11.2778" stroke="white" stroke-width="1.875" stroke-linecap="round" stroke-linejoin="round"/>
<path d="M7.9183 6.24975C6.25442 7.56354 5.30528 9.40783 5.12137 11.2778" stroke="white" stroke-width="1.875" stroke-linecap="round" stroke-linejoin="round"/>
</svg>
