<svg width="30" height="30" viewBox="0 0 30 30" fill="none" xmlns="http://www.w3.org/2000/svg">
<path fill-rule="evenodd" clip-rule="evenodd" d="M27.1875 15C27.1875 21.731 21.731 27.1875 15 27.1875C8.26903 27.1875 2.8125 21.731 2.8125 15C2.8125 8.26903 8.26903 2.8125 15 2.8125C21.731 2.8125 27.1875 8.26903 27.1875 15ZM13.75 11.25C13.75 12.2855 12.9105 13.125 11.875 13.125C10.8395 13.125 10 12.2855 10 11.25C10 10.2145 10.8395 9.375 11.875 9.375C12.9105 9.375 13.75 10.2145 13.75 11.25ZM20 11.25C20 12.2855 19.1605 13.125 18.125 13.125C17.0895 13.125 16.25 12.2855 16.25 11.25C16.25 10.2145 17.0895 9.375 18.125 9.375C19.1605 9.375 20 10.2145 20 11.25ZM10.1291 16.4997C9.9218 16.0252 9.36913 15.8086 8.89467 16.0159C8.42021 16.2232 8.20364 16.7759 8.41094 17.2503C9.51919 19.7869 12.0512 21.5625 15 21.5625C17.9488 21.5625 20.4807 19.7869 21.589 17.2503C21.7963 16.7759 21.5797 16.2232 21.1053 16.0159C20.6308 15.8086 20.0781 16.0252 19.8708 16.4997C19.0502 18.3779 17.177 19.6875 15 19.6875C12.823 19.6875 10.9497 18.3779 10.1291 16.4997Z" fill="white"/>
</svg>
