<svg width="30" height="30" viewBox="0 0 30 30" fill="none" xmlns="http://www.w3.org/2000/svg">
<path fill-rule="evenodd" clip-rule="evenodd" d="M18.125 22.1875H15.2212L9.53866 25.0288C8.17416 25.711 7.4919 26.0522 7.06795 25.8321C6.93664 25.7639 6.82333 25.6656 6.73728 25.5453C6.45945 25.1567 6.70066 24.4331 7.18308 22.9858L7.50641 22.0158C7.07698 21.9423 6.70673 21.8373 6.36493 21.6874C5.00057 21.0889 3.91106 19.9994 3.3126 18.6351C2.8125 17.495 2.8125 16.0383 2.8125 13.125C2.8125 10.2117 2.8125 8.75504 3.3126 7.61493C3.91106 6.25057 5.00057 5.16106 6.36493 4.5626C7.50504 4.0625 8.96169 4.0625 11.875 4.0625H18.125C21.0383 4.0625 22.495 4.0625 23.6351 4.5626C24.9994 5.16106 26.0889 6.25057 26.6874 7.61493C27.1875 8.75504 27.1875 10.2117 27.1875 13.125C27.1875 16.0383 27.1875 17.495 26.6874 18.6351C26.0889 19.9994 24.9994 21.0889 23.6351 21.6874C22.495 22.1875 21.0383 22.1875 18.125 22.1875ZM7.5 13.125C7.5 12.2621 8.19955 11.5625 9.0625 11.5625C9.92545 11.5625 10.625 12.2621 10.625 13.125C10.625 13.9879 9.92545 14.6875 9.0625 14.6875C8.19955 14.6875 7.5 13.9879 7.5 13.125ZM13.4375 13.125C13.4375 12.2621 14.1371 11.5625 15 11.5625C15.8629 11.5625 16.5625 12.2621 16.5625 13.125C16.5625 13.9879 15.8629 14.6875 15 14.6875C14.1371 14.6875 13.4375 13.9879 13.4375 13.125ZM20.9375 11.5625C20.0746 11.5625 19.375 12.2621 19.375 13.125C19.375 13.9879 20.0746 14.6875 20.9375 14.6875C21.8004 14.6875 22.5 13.9879 22.5 13.125C22.5 12.2621 21.8004 11.5625 20.9375 11.5625Z" fill="white"/>
</svg>
