<svg width="180" height="21" viewBox="0 0 180 21" fill="none" xmlns="http://www.w3.org/2000/svg">
<g clip-path="url(#clip0_262_67)">
<path fill-rule="evenodd" clip-rule="evenodd" d="M19.3564 2.74597H9.03301C4.99446 2.74597 1.72057 6.01984 1.72057 10.0584C1.72057 14.0969 4.99446 17.3708 9.03301 17.3708H19.3564C23.3951 17.3708 26.6689 14.0969 26.6689 10.0584C26.6689 6.01984 23.3951 2.74597 19.3564 2.74597ZM9.03301 1.02539C4.04422 1.02539 0 5.0696 0 10.0584C0 15.0472 4.04422 19.0914 9.03301 19.0914H19.3564C24.3452 19.0914 28.3894 15.0472 28.3894 10.0584C28.3894 5.0696 24.3452 1.02539 19.3564 1.02539H9.03301Z" fill="#81D98E"/>
<path d="M28.3891 10.0584C28.3891 15.0472 24.345 19.0914 19.3562 19.0914C14.3675 19.0914 10.3232 15.0472 10.3232 10.0584C10.3232 5.0696 14.3675 1.02539 19.3562 1.02539C24.345 1.02539 28.3891 5.0696 28.3891 10.0584Z" fill="#81D98E"/>
<path d="M33.3877 20.5562L39.8686 0H44.9077L51.3886 20.5562H47.8486L41.9671 2.11272H42.7379L36.928 20.5562H33.3877ZM36.9994 16.1024V12.8905H47.7914V16.1024H36.9994Z" fill="#81D98E"/>
<path d="M70.771 20.556V11.1915C70.771 10.1351 70.5092 9.31194 69.9857 8.72191C69.4625 8.12233 68.7535 7.82256 67.8589 7.82256C67.307 7.82256 66.812 7.95103 66.3743 8.208C65.9365 8.45543 65.589 8.82657 65.3321 9.32145C65.0752 9.8068 64.9467 10.3873 64.9467 11.063L63.4192 10.1637C63.4097 9.09781 63.6477 8.16041 64.133 7.35148C64.628 6.53304 65.2941 5.89542 66.1316 5.43861C66.9691 4.9818 67.9018 4.75342 68.9295 4.75342C70.633 4.75342 71.9368 5.2673 72.8408 6.29512C73.7546 7.31341 74.2113 8.65527 74.2113 10.3207V20.556H70.771ZM52.2275 20.556V5.13883H55.2682V9.921H55.6965V20.556H52.2275ZM61.5206 20.556V11.2343C61.5206 10.1589 61.259 9.32145 60.7356 8.72191C60.2121 8.12233 59.4984 7.82256 58.5942 7.82256C57.7187 7.82256 57.0146 8.12233 56.4816 8.72191C55.9581 9.32145 55.6965 10.1018 55.6965 11.063L54.1546 10.0352C54.1546 9.03595 54.4022 8.13663 54.897 7.33721C55.392 6.5378 56.0581 5.90968 56.8956 5.45288C57.7425 4.98658 58.6894 4.75342 59.7362 4.75342C60.8878 4.75342 61.8489 5.00085 62.62 5.49571C63.4004 5.98108 63.9807 6.64724 64.3615 7.49424C64.7515 8.33171 64.9467 9.27862 64.9467 10.335V20.556H61.5206Z" fill="#81D98E"/>
<path d="M82.1745 20.9846C80.2709 20.9846 78.7246 20.5563 77.535 19.6998C76.3454 18.8433 75.6222 17.6395 75.3652 16.0882L78.8769 15.5458C79.0576 16.3071 79.4574 16.9067 80.076 17.3444C80.6946 17.7822 81.475 18.0011 82.4169 18.0011C83.2449 18.0011 83.8826 17.8393 84.33 17.5157C84.7868 17.1827 85.0151 16.7306 85.0151 16.1596C85.0151 15.8075 84.9295 15.5267 84.7581 15.3174C84.5963 15.0985 84.2347 14.8891 83.6732 14.6893C83.1118 14.4894 82.2505 14.2372 81.0896 13.9327C79.7953 13.5901 78.7673 13.2237 78.006 12.8335C77.2447 12.4338 76.6975 11.9627 76.3643 11.4203C76.0314 10.8778 75.8647 10.2211 75.8647 9.45028C75.8647 8.4891 76.1169 7.65161 76.6213 6.93786C77.1258 6.2241 77.83 5.67688 78.7342 5.29622C79.6381 4.90602 80.7041 4.71094 81.9317 4.71094C83.1309 4.71094 84.192 4.89651 85.1151 5.26766C86.0477 5.63882 86.7994 6.167 87.3704 6.85222C87.9414 7.5374 88.2938 8.34158 88.4269 9.26471L84.9153 9.89282C84.8295 9.23614 84.5298 8.71748 84.016 8.33682C83.5114 7.95614 82.8357 7.74203 81.9889 7.69444C81.1798 7.64685 80.5279 7.77057 80.0331 8.06558C79.5383 8.35109 79.2907 8.75555 79.2907 9.27897C79.2907 9.57399 79.3907 9.8262 79.5906 10.0356C79.7904 10.2449 80.19 10.4543 80.7897 10.6637C81.3987 10.873 82.3029 11.13 83.5021 11.4345C84.7297 11.7486 85.7099 12.1102 86.4427 12.5194C87.1848 12.9191 87.7179 13.3997 88.0415 13.9612C88.3744 14.5227 88.5411 15.2032 88.5411 16.0026C88.5411 17.5538 87.9748 18.7719 86.8423 19.657C85.7194 20.5421 84.1633 20.9846 82.1745 20.9846Z" fill="#81D98E"/>
<path d="M98.9914 20.5562C97.9731 20.7465 96.9738 20.8274 95.9936 20.7988C95.023 20.7798 94.1521 20.6037 93.3813 20.2706C92.6105 19.928 92.025 19.3903 91.6253 18.6575C91.2733 17.9914 91.0877 17.3109 91.0686 16.6162C91.0497 15.9215 91.0401 15.1364 91.0401 14.2608V0.856445H94.4662V14.0609C94.4662 14.6795 94.4708 15.222 94.4804 15.6883C94.4995 16.1546 94.5993 16.5353 94.7802 16.8303C95.1228 17.4013 95.67 17.7201 96.4219 17.7868C97.1736 17.8534 98.0303 17.8153 98.9914 17.6726V20.5562ZM88.2422 7.83698V5.13898H98.9914V7.83698H88.2422Z" fill="#81D98E"/>
<path d="M106.821 20.9846C105.261 20.9846 103.89 20.6467 102.71 19.9711C101.53 19.2954 100.607 18.358 99.9409 17.1588C99.2843 15.9597 98.9561 14.5798 98.9561 13.0191C98.9561 11.3346 99.2797 9.87377 99.9267 8.63659C100.574 7.38991 101.473 6.42395 102.625 5.73873C103.776 5.05354 105.109 4.71094 106.622 4.71094C108.22 4.71094 109.577 5.08684 110.69 5.83867C111.813 6.58098 112.646 7.63258 113.188 8.99347C113.731 10.3544 113.935 11.9579 113.802 13.8042H110.39V12.548C110.381 10.873 110.086 9.65014 109.505 8.87927C108.925 8.10842 108.011 7.72298 106.765 7.72298C105.356 7.72298 104.309 8.16076 103.624 9.0363C102.939 9.90233 102.596 11.1728 102.596 12.8478C102.596 14.4085 102.939 15.6171 103.624 16.4736C104.309 17.3302 105.309 17.7584 106.622 17.7584C107.469 17.7584 108.197 17.5728 108.806 17.2017C109.425 16.821 109.9 16.2738 110.233 15.56L113.631 16.5879C113.041 17.9773 112.127 19.0575 110.89 19.8283C109.662 20.5992 108.306 20.9846 106.821 20.9846ZM101.511 13.8042V11.2061H112.118V13.8042H101.511Z" fill="#81D98E"/>
<path d="M115.274 20.5563V5.13912H118.315V8.8935L117.944 8.40813C118.134 7.89422 118.386 7.4279 118.7 7.00917C119.024 6.58092 119.41 6.2288 119.857 5.95281C120.237 5.69587 120.656 5.496 121.113 5.35326C121.579 5.20098 122.055 5.11059 122.54 5.08202C123.026 5.04395 123.497 5.063 123.954 5.13912V8.35103C123.497 8.2178 122.969 8.17497 122.369 8.22256C121.779 8.27015 121.246 8.43669 120.77 8.7222C120.295 8.97914 119.904 9.30748 119.6 9.70716C119.305 10.1069 119.086 10.5637 118.943 11.0776C118.8 11.582 118.729 12.1292 118.729 12.7192V20.5563H115.274Z" fill="#81D98E"/>
<path d="M130.867 20.9845C129.449 20.9845 128.212 20.6276 127.155 19.9138C126.099 19.2001 125.28 18.2294 124.7 17.0017C124.119 15.774 123.829 14.3893 123.829 12.8476C123.829 11.2869 124.119 9.89744 124.7 8.67929C125.29 7.45163 126.122 6.48567 127.198 5.78143C128.273 5.06768 129.539 4.7108 130.995 4.7108C132.461 4.7108 133.688 5.06768 134.678 5.78143C135.677 6.48567 136.434 7.45163 136.948 8.67929C137.462 9.90695 137.719 11.2964 137.719 12.8476C137.719 14.3798 137.462 15.7645 136.948 17.0017C136.434 18.2294 135.668 19.2001 134.65 19.9138C133.631 20.6276 132.37 20.9845 130.867 20.9845ZM131.395 17.901C132.318 17.901 133.06 17.6916 133.622 17.2729C134.193 16.8447 134.607 16.2499 134.864 15.4885C135.13 14.7272 135.263 13.8469 135.263 12.8476C135.263 11.8389 135.13 10.9586 134.864 10.2067C134.607 9.44539 134.202 8.85535 133.65 8.43662C133.098 8.00835 132.385 7.79423 131.509 7.79423C130.586 7.79423 129.825 8.02264 129.225 8.47942C128.625 8.92672 128.183 9.53581 127.898 10.3067C127.612 11.068 127.469 11.915 127.469 12.8476C127.469 13.7898 127.607 14.6463 127.883 15.4171C128.169 16.1785 128.602 16.7828 129.182 17.2301C129.763 17.6774 130.5 17.901 131.395 17.901ZM135.263 20.5562V9.73565H134.835V0H138.304V20.5562H135.263Z" fill="#81D98E"/>
<path d="M176.543 20.556V11.1915C176.543 10.1351 176.281 9.31194 175.757 8.72191C175.234 8.12233 174.525 7.82256 173.63 7.82256C173.078 7.82256 172.583 7.95103 172.146 8.208C171.708 8.45543 171.361 8.82657 171.104 9.32145C170.847 9.8068 170.718 10.3873 170.718 11.063L169.191 10.1637C169.181 9.09781 169.419 8.16041 169.904 7.35148C170.399 6.53304 171.066 5.89542 171.903 5.43861C172.74 4.9818 173.673 4.75342 174.701 4.75342C176.404 4.75342 177.708 5.2673 178.612 6.29512C179.526 7.31341 179.983 8.65527 179.983 10.3207V20.556H176.543ZM157.999 20.556V5.13883H161.04V9.921H161.468V20.556H157.999ZM167.292 20.556V11.2343C167.292 10.1589 167.03 9.32145 166.507 8.72191C165.984 8.12233 165.27 7.82256 164.366 7.82256C163.49 7.82256 162.786 8.12233 162.253 8.72191C161.73 9.32145 161.468 10.1018 161.468 11.063L159.926 10.0352C159.926 9.03595 160.174 8.13663 160.668 7.33721C161.163 6.5378 161.83 5.90968 162.667 5.45288C163.514 4.98658 164.461 4.75342 165.508 4.75342C166.659 4.75342 167.62 5.00085 168.391 5.49571C169.172 5.98108 169.752 6.64724 170.133 7.49424C170.523 8.33171 170.718 9.27862 170.718 10.335V20.556H167.292Z" fill="#81D98E"/>
<path d="M146.309 20.9846C145.196 20.9846 144.254 20.7752 143.483 20.3565C142.712 19.9282 142.127 19.362 141.727 18.6577C141.337 17.9535 141.142 17.1779 141.142 16.3309C141.142 15.5886 141.265 14.9224 141.513 14.3324C141.76 13.7328 142.141 13.2189 142.655 12.7907C143.169 12.3529 143.835 11.996 144.653 11.72C145.272 11.5202 145.995 11.3393 146.823 11.1776C147.661 11.0158 148.565 10.8683 149.535 10.735C150.516 10.5923 151.539 10.44 152.605 10.2782L151.377 10.9777C151.386 9.91184 151.149 9.1267 150.663 8.62232C150.178 8.11793 149.359 7.86574 148.208 7.86574C147.513 7.86574 146.842 8.02753 146.195 8.35109C145.548 8.67467 145.096 9.23139 144.839 10.0213L141.698 9.0363C142.079 7.73251 142.802 6.68567 143.868 5.89577C144.944 5.10589 146.39 4.71094 148.208 4.71094C149.578 4.71094 150.782 4.93459 151.819 5.38186C152.866 5.82915 153.642 6.56195 154.146 7.58024C154.422 8.12268 154.589 8.67943 154.646 9.25044C154.703 9.81191 154.732 10.4258 154.732 11.0919V20.5563H151.72V17.216L152.219 17.7584C151.524 18.8719 150.711 19.6903 149.778 20.2137C148.855 20.7276 147.699 20.9846 146.309 20.9846ZM146.994 18.2438C147.775 18.2438 148.441 18.1058 148.993 17.8298C149.545 17.5538 149.983 17.2159 150.306 16.8163C150.639 16.4166 150.863 16.0406 150.977 15.6885C151.158 15.2508 151.258 14.7511 151.277 14.1896C151.306 13.6186 151.32 13.1571 151.32 12.8049L152.376 13.119C151.339 13.2808 150.449 13.4235 149.707 13.5472C148.964 13.671 148.327 13.7899 147.794 13.9041C147.261 14.0088 146.79 14.1278 146.381 14.261C145.981 14.4038 145.643 14.5703 145.367 14.7606C145.091 14.951 144.877 15.1698 144.725 15.4173C144.582 15.6647 144.511 15.955 144.511 16.2881C144.511 16.6687 144.606 17.0066 144.796 17.3016C144.986 17.5871 145.262 17.8155 145.624 17.9868C145.995 18.1581 146.452 18.2438 146.994 18.2438Z" fill="#81D98E"/>
</g>
<defs>
<clipPath id="clip0_262_67">
<rect width="180" height="20.9845" fill="white"/>
</clipPath>
</defs>
</svg>
