<svg width="191" height="50" viewBox="0 0 191 50" fill="none" xmlns="http://www.w3.org/2000/svg">
<g clip-path="url(#clip0_262_108)">
<path d="M81.6892 38.6424H75.5741L65.347 23.1586V38.6424H59.2324V13.5393H65.347L75.5741 29.0946V13.5393H81.6892V38.6424Z" fill="#161616"/>
<path d="M84.9053 28.6297C84.9053 26.5796 85.2869 24.7797 86.0497 23.2301C86.8366 21.6805 87.8975 20.4885 89.2324 19.6542C90.5674 18.8198 92.0572 18.4026 93.7024 18.4026C95.1087 18.4026 96.3366 18.6886 97.3854 19.2608C98.4584 19.833 99.2805 20.5839 99.8527 21.5136V18.6886H105.968V38.6424H99.8527V35.8174C99.2569 36.7471 98.4227 37.4981 97.3497 38.0702C96.3009 38.6424 95.073 38.9284 93.6667 38.9284C92.0457 38.9284 90.5674 38.5112 89.2324 37.6768C87.8975 36.8186 86.8366 35.6147 86.0497 34.0652C85.2869 32.4917 84.9053 30.6799 84.9053 28.6297ZM99.8527 28.6655C99.8527 27.1398 99.4238 25.9359 98.5655 25.0538C97.7314 24.1718 96.7061 23.7307 95.4904 23.7307C94.2746 23.7307 93.2373 24.1718 92.379 25.0538C91.5448 25.912 91.1275 27.104 91.1275 28.6297C91.1275 30.1555 91.5448 31.3713 92.379 32.2772C93.2373 33.1593 94.2746 33.6003 95.4904 33.6003C96.7061 33.6003 97.7314 33.1593 98.5655 32.2772C99.4238 31.3951 99.8527 30.1912 99.8527 28.6655Z" fill="#161616"/>
<path d="M113.467 16.6146C112.394 16.6146 111.512 16.3047 110.82 15.6849C110.153 15.0412 109.819 14.2545 109.819 13.3247C109.819 12.3712 110.153 11.5845 110.82 10.9646C111.512 10.321 112.394 9.99915 113.467 9.99915C114.516 9.99915 115.374 10.321 116.042 10.9646C116.733 11.5845 117.078 12.3712 117.078 13.3247C117.078 14.2545 116.733 15.0412 116.042 15.6849C115.374 16.3047 114.516 16.6146 113.467 16.6146ZM116.506 18.6886V38.6424H110.392V18.6886H116.506Z" fill="#161616"/>
<path d="M127.053 22.0143C127.769 20.9177 128.663 20.0595 129.735 19.4397C130.808 18.796 132 18.4741 133.311 18.4741V24.9466H131.631C130.105 24.9466 128.961 25.2803 128.197 25.9478C127.435 26.5915 127.053 27.7358 127.053 29.3807V38.6424H120.938V18.6887H127.053V22.0143Z" fill="#161616"/>
<path d="M145.316 38.9284C143.361 38.9284 141.597 38.5112 140.024 37.6768C138.474 36.8425 137.247 35.6505 136.34 34.1009C135.459 32.5513 135.018 30.7395 135.018 28.6655C135.018 26.6153 135.471 24.8154 136.376 23.2659C137.282 21.6924 138.522 20.4885 140.095 19.6542C141.669 18.8198 143.433 18.4026 145.388 18.4026C147.342 18.4026 149.107 18.8198 150.68 19.6542C152.253 20.4885 153.493 21.6924 154.399 23.2659C155.305 24.8154 155.758 26.6153 155.758 28.6655C155.758 30.7157 155.293 32.5275 154.364 34.1009C153.457 35.6505 152.206 36.8425 150.609 37.6768C149.035 38.5112 147.271 38.9284 145.316 38.9284ZM145.316 33.636C146.485 33.636 147.474 33.2069 148.284 32.3487C149.119 31.4905 149.536 30.2628 149.536 28.6655C149.536 27.0682 149.13 25.8405 148.32 24.9823C147.533 24.1241 146.556 23.695 145.388 23.695C144.196 23.695 143.206 24.1241 142.42 24.9823C141.633 25.8166 141.24 27.0444 141.24 28.6655C141.24 30.2628 141.621 31.4905 142.384 32.3487C143.171 33.2069 144.148 33.636 145.316 33.636Z" fill="#161616"/>
<path d="M165.117 21.5137C165.689 20.5839 166.511 19.833 167.584 19.2608C168.657 18.6886 169.885 18.4026 171.267 18.4026C172.912 18.4026 174.402 18.8198 175.737 19.6542C177.072 20.4885 178.121 21.6805 178.884 23.2301C179.671 24.7797 180.064 26.5796 180.064 28.6298C180.064 30.6799 179.671 32.4918 178.884 34.0652C178.121 35.6147 177.072 36.8187 175.737 37.6768C174.402 38.5112 172.912 38.9284 171.267 38.9284C169.861 38.9284 168.633 38.6543 167.584 38.106C166.535 37.5338 165.713 36.7829 165.117 35.8532V38.6424H159.002V12.1805H165.117V21.5137ZM173.842 28.6298C173.842 27.104 173.413 25.912 172.555 25.0538C171.72 24.1718 170.683 23.7307 169.444 23.7307C168.228 23.7307 167.191 24.1718 166.332 25.0538C165.498 25.9359 165.081 27.1398 165.081 28.6655C165.081 30.1912 165.498 31.3951 166.332 32.2772C167.191 33.1593 168.228 33.6003 169.444 33.6003C170.66 33.6003 171.696 33.1593 172.555 32.2772C173.413 31.3713 173.842 30.1555 173.842 28.6298Z" fill="#161616"/>
<path d="M186.348 16.6146C185.275 16.6146 184.393 16.3047 183.702 15.6849C183.034 15.0412 182.7 14.2545 182.7 13.3247C182.7 12.3712 183.034 11.5845 183.702 10.9646C184.393 10.321 185.275 9.99915 186.348 9.99915C187.397 9.99915 188.255 10.321 188.922 10.9646C189.614 11.5845 189.959 12.3712 189.959 13.3247C189.959 14.2545 189.614 15.0412 188.922 15.6849C188.255 16.3047 187.397 16.6146 186.348 16.6146ZM189.388 18.6886V38.6424H183.272V18.6886H189.388Z" fill="#161616"/>
<path fill-rule="evenodd" clip-rule="evenodd" d="M49.261 49.4225L0.75 20.8378L0.923592 1.27362L49.4345 29.8583L49.261 49.4225Z" fill="#5030E5"/>
<path d="M28.537 0.245056C28.5123 3.01984 29.0345 5.7723 30.0736 8.34532C31.1127 10.9183 32.6484 13.2614 34.5931 15.2409C36.5378 17.2204 38.8533 18.7975 41.4074 19.8821C43.9616 20.9666 46.7043 21.5376 49.4791 21.5622L49.6666 0.432541L28.537 0.245056Z" fill="#5030E5"/>
<path d="M21.6316 49.009C21.6563 46.2342 21.1341 43.4818 20.095 40.9088C19.0558 38.3358 17.5201 35.9927 15.5754 34.0132C13.6308 32.0337 11.3153 30.4567 8.76113 29.372C6.207 28.2874 3.46423 27.7165 0.689435 27.6919L0.501953 48.8215L21.6316 49.009Z" fill="#5030E5"/>
</g>
<defs>
<clipPath id="clip0_262_108">
<rect width="190" height="49.422" fill="white" transform="translate(0.5)"/>
</clipPath>
</defs>
</svg>
