<svg width="181" height="35" viewBox="0 0 181 35" fill="none" xmlns="http://www.w3.org/2000/svg">
<g clip-path="url(#clip0_262_119)">
<mask id="mask0_262_119" style="mask-type:luminance" maskUnits="userSpaceOnUse" x="0" y="0" width="181" height="35">
<path d="M180.337 0H0.5V34.0336H180.337V0Z" fill="white"/>
</mask>
<g mask="url(#mask0_262_119)">
<path d="M46.9915 32.146C45.1056 32.146 43.4887 31.6778 42.1402 30.7412C40.7917 29.7922 39.7487 28.5123 39.0121 26.9015C38.2879 25.2907 37.9258 23.4739 37.9258 21.451C37.9258 19.4281 38.2879 17.6112 39.0121 16.0004C39.7487 14.3896 40.7917 13.1222 42.1402 12.1981C43.4887 11.2616 45.0996 10.7933 46.9726 10.7933C48.883 10.7933 50.4875 11.2554 51.7864 12.1794C53.085 13.1034 54.0652 14.3709 54.7269 15.9817C55.4012 17.5925 55.7385 19.4156 55.7385 21.451C55.7385 23.4614 55.4012 25.2782 54.7269 26.9015C54.0652 28.5123 53.085 29.7922 51.7864 30.7412C50.4875 31.6778 48.8894 32.146 46.9915 32.146ZM47.4033 29.093C48.7646 29.093 49.8821 28.7683 50.756 28.119C51.6302 27.4572 52.2731 26.5519 52.6853 25.4031C53.11 24.2418 53.3221 22.9244 53.3221 21.451C53.3221 19.9525 53.11 18.6351 52.6853 17.4988C52.2731 16.35 51.6363 15.4572 50.7749 14.8204C49.9134 14.1711 48.8206 13.8464 47.4971 13.8464C46.1236 13.8464 44.9873 14.1835 44.088 14.8579C43.2016 15.5321 42.5399 16.4437 42.1027 17.5925C41.6781 18.7413 41.4659 20.0275 41.4659 21.451C41.4659 22.887 41.6845 24.1856 42.1213 25.3469C42.5584 26.4957 43.2141 27.4072 44.088 28.0816C44.9748 28.7558 46.0797 29.093 47.4033 29.093ZM53.3221 31.5841V16.6934H52.9477V4.61231H56.3004V31.5841H53.3221ZM68.0662 32.146C66.0809 32.146 64.3452 31.709 62.8591 30.8349C61.3858 29.9483 60.237 28.7184 59.413 27.145C58.5886 25.5592 58.1764 23.7111 58.1764 21.6008C58.1764 19.3906 58.5826 17.4801 59.3941 15.8693C60.2056 14.246 61.3359 12.9973 62.7842 12.1232C64.2454 11.2367 65.9561 10.7933 67.9165 10.7933C69.9517 10.7933 71.6813 11.2616 73.1047 12.1981C74.5409 13.1347 75.6145 14.4708 76.3266 16.2064C77.0507 17.9421 77.3627 20.0087 77.2629 22.4062H73.8913V21.2075C73.8538 18.7226 73.3482 16.8683 72.3741 15.6445C71.4004 14.4083 69.9517 13.7902 68.0288 13.7902C65.9686 13.7902 64.4012 14.452 63.3276 15.7756C62.2537 17.0993 61.7167 18.9973 61.7167 21.4697C61.7167 23.8547 62.2537 25.7028 63.3276 27.0139C64.4012 28.325 65.9312 28.9806 67.9165 28.9806C69.2525 28.9806 70.4138 28.6747 71.4004 28.0628C72.3866 27.4509 73.161 26.5706 73.723 25.4218L76.9259 26.5269C76.139 28.3125 74.9527 29.6986 73.3671 30.685C71.7937 31.659 70.0265 32.146 68.0662 32.146ZM60.5928 22.4062V19.7278H75.5396V22.4062H60.5928ZM79.5601 31.5841V4.05042H82.8939V31.5841H79.5601ZM92.0164 32.146C90.5057 32.146 89.2381 31.8713 88.2145 31.3219C87.2029 30.76 86.4349 30.0232 85.9104 29.1117C85.3984 28.2002 85.1424 27.2012 85.1424 26.1148C85.1424 25.0535 85.3424 24.1357 85.7418 23.3615C86.1539 22.5748 86.7284 21.9255 87.465 21.4135C88.202 20.889 89.0823 20.477 90.106 20.1773C91.0676 19.9151 92.1416 19.6903 93.3279 19.503C94.5266 19.3032 95.7378 19.1222 96.9615 18.9598C98.1852 18.7975 99.3276 18.6414 100.389 18.4916L99.1903 19.1846C99.2278 17.3864 98.8659 16.0566 98.1039 15.195C97.3548 14.3334 96.0562 13.9026 94.2082 13.9026C92.9845 13.9026 91.9105 14.1835 90.9863 14.7455C90.075 15.2949 89.4318 16.1939 89.0574 17.4426L85.8919 16.4874C86.3786 14.7142 87.3217 13.322 88.7201 12.3105C90.1185 11.2991 91.9605 10.7933 94.2456 10.7933C96.0812 10.7933 97.6543 11.1243 98.9657 11.7861C100.289 12.4354 101.238 13.4219 101.813 14.7455C102.1 15.3698 102.281 16.0504 102.356 16.7871C102.431 17.5113 102.468 18.273 102.468 19.0722V31.5841H99.5087V26.733L100.202 27.1825C99.4403 28.8183 98.3724 30.0545 96.9989 30.8911C95.638 31.7277 93.9771 32.146 92.0164 32.146ZM92.5224 29.3552C93.7211 29.3552 94.7576 29.1429 95.6316 28.7184C96.5183 28.2813 97.23 27.7132 97.767 27.0139C98.3039 26.3022 98.6534 25.528 98.8156 24.6913C99.0031 24.067 99.103 23.3739 99.1155 22.6122C99.1404 21.838 99.1529 21.2449 99.1529 20.8328L100.314 21.3386C99.2278 21.4884 98.1602 21.632 97.1113 21.7694C96.0623 21.9068 95.0696 22.0566 94.1333 22.2189C93.1966 22.3687 92.3537 22.5498 91.6046 22.7621C91.0552 22.9369 90.5371 23.1617 90.05 23.4364C89.5755 23.7111 89.1882 24.067 88.8887 24.504C88.6013 24.9286 88.4576 25.4593 88.4576 26.0961C88.4576 26.6455 88.5953 27.17 88.8698 27.6695C89.1572 28.1689 89.594 28.5748 90.1809 28.8869C90.7802 29.1991 91.5608 29.3552 92.5224 29.3552ZM108.667 31.5841L102.486 11.3365L105.801 11.3553L110.315 26.1523L114.867 11.3553H117.807L122.34 26.1523L126.873 11.3553H130.169L123.988 31.5841H121.216L116.327 16.2064L111.439 31.5841H108.667ZM135.921 32.146C134.409 32.146 133.142 31.8713 132.118 31.3219C131.107 30.76 130.339 30.0232 129.814 29.1117C129.303 28.2002 129.047 27.2012 129.047 26.1148C129.047 25.0535 129.246 24.1357 129.646 23.3615C130.058 22.5748 130.632 21.9255 131.369 21.4135C132.106 20.889 132.986 20.477 134.01 20.1773C134.971 19.9151 136.045 19.6903 137.232 19.503C138.43 19.3032 139.642 19.1222 140.865 18.9598C142.089 18.7975 143.232 18.6414 144.293 18.4916L143.094 19.1846C143.132 17.3864 142.77 16.0566 142.008 15.195C141.259 14.3334 139.96 13.9026 138.112 13.9026C136.888 13.9026 135.814 14.1835 134.89 14.7455C133.979 15.2949 133.335 16.1939 132.961 17.4426L129.796 16.4874C130.283 14.7142 131.225 13.322 132.624 12.3105C134.023 11.2991 135.864 10.7933 138.149 10.7933C139.985 10.7933 141.558 11.1243 142.869 11.7861C144.193 12.4354 145.142 13.4219 145.717 14.7455C146.004 15.3698 146.185 16.0504 146.26 16.7871C146.334 17.5113 146.372 18.273 146.372 19.0722V31.5841H143.412V26.733L144.106 27.1825C143.344 28.8183 142.276 30.0545 140.903 30.8911C139.542 31.7277 137.881 32.146 135.921 32.146ZM136.426 29.3552C137.625 29.3552 138.661 29.1429 139.535 28.7184C140.422 28.2813 141.134 27.7132 141.671 27.0139C142.208 26.3022 142.557 25.528 142.72 24.6913C142.907 24.067 143.007 23.3739 143.019 22.6122C143.044 21.838 143.057 21.2449 143.057 20.8328L144.218 21.3386C143.132 21.4884 142.064 21.632 141.015 21.7694C139.966 21.9068 138.973 22.0566 138.037 22.2189C137.1 22.3687 136.257 22.5498 135.508 22.7621C134.959 22.9369 134.441 23.1617 133.954 23.4364C133.479 23.7111 133.092 24.067 132.792 24.504C132.505 24.9286 132.362 25.4593 132.362 26.0961C132.362 26.6455 132.499 27.17 132.774 27.6695C133.061 28.1689 133.498 28.5748 134.085 28.8869C134.684 29.1991 135.464 29.3552 136.426 29.3552ZM148.994 31.5841V11.3553H151.972V16.2439L151.485 15.6071C151.723 14.9827 152.029 14.4083 152.403 13.8839C152.79 13.3594 153.221 12.9286 153.696 12.5915C154.22 12.1669 154.813 11.8423 155.475 11.6175C156.137 11.3927 156.811 11.2616 157.498 11.2242C158.185 11.1742 158.828 11.2179 159.427 11.3553V14.4832C158.728 14.2959 157.96 14.246 157.123 14.3334C156.287 14.4208 155.513 14.7268 154.801 15.2512C154.151 15.7132 153.646 16.2751 153.283 16.9369C152.934 17.5987 152.69 18.3167 152.553 19.0909C152.415 19.8526 152.347 20.6331 152.347 21.4323V31.5841H148.994ZM169.121 32.146C167.136 32.146 165.4 31.709 163.914 30.8349C162.441 29.9483 161.292 28.7184 160.468 27.145C159.644 25.5592 159.232 23.7111 159.232 21.6008C159.232 19.3906 159.637 17.4801 160.449 15.8693C161.261 14.246 162.391 12.9973 163.839 12.1232C165.3 11.2367 167.011 10.7933 168.971 10.7933C171.007 10.7933 172.736 11.2616 174.16 12.1981C175.596 13.1347 176.67 14.4708 177.381 16.2064C178.106 17.9421 178.418 20.0087 178.318 22.4062H174.947V21.2075C174.909 18.7226 174.403 16.8683 173.429 15.6445C172.455 14.4083 171.007 13.7902 169.084 13.7902C167.023 13.7902 165.456 14.452 164.382 15.7756C163.309 17.0993 162.772 18.9973 162.772 21.4697C162.772 23.8547 163.309 25.7028 164.382 27.0139C165.456 28.325 166.986 28.9806 168.971 28.9806C170.307 28.9806 171.469 28.6747 172.455 28.0628C173.442 27.4509 174.216 26.5706 174.778 25.4218L177.981 26.5269C177.194 28.3125 176.008 29.6986 174.422 30.685C172.849 31.659 171.082 32.146 169.121 32.146ZM161.648 22.4062V19.7278H176.595V22.4062H161.648Z" fill="#005A44"/>
<path d="M171.415 6.87508L172.813 2.3009H174.102L175.5 6.87508H174.61L173.365 2.84091H173.53L172.304 6.87508H171.415ZM172.253 5.9221V5.11528H174.668V5.9221H172.253ZM175.942 6.87508V6.76708L178.115 3.10773H176.133V2.3009H179.627V2.4089L177.467 6.06187H179.563V6.87508H175.942Z" fill="#005A44"/>
<path fill-rule="evenodd" clip-rule="evenodd" d="M17.3174 0.341614H0.391602V34.1932H17.3174C26.6653 34.1932 34.2432 26.6153 34.2432 17.2674C34.2432 7.91957 26.6653 0.341614 17.3174 0.341614ZM18.9046 29.3703C18.5156 29.2558 18.1167 28.7928 18.032 28.3496C17.9771 28.0608 18.0419 27.8616 18.4558 27.06C20.1313 23.8235 20.8594 20.8459 20.8594 17.236C20.8594 13.7456 20.2161 11.0269 18.6154 7.77046C18.2713 7.07338 17.9921 6.42111 17.9921 6.32649C17.9921 5.97795 18.2813 5.47505 18.5954 5.28087C19.0243 5.012 19.7473 5.06177 20.0964 5.38543C20.2311 5.50991 20.5751 6.07756 20.8643 6.64516C22.0112 8.89081 22.7942 11.3555 23.1831 13.9198C23.4225 15.5082 23.4723 18.5156 23.2779 19.9696C22.9238 22.6484 22.2157 25.0434 21.0788 27.3837C20.3906 28.7978 19.9618 29.3803 19.6027 29.3803C19.5329 29.3803 19.4132 29.4002 19.3434 29.4202C19.2736 29.44 19.0741 29.4202 18.9046 29.3703ZM14.2422 26.9355C13.6438 26.7612 13.2099 26.0243 13.3844 25.4766C13.4243 25.3422 13.7086 24.7297 14.0128 24.1123C15.2943 21.4982 15.8279 18.6999 15.5686 15.9513C15.3542 13.6908 14.9502 12.2667 13.928 10.1854C13.2448 8.78625 13.2099 8.57214 13.6088 8.0045C13.9878 7.46673 14.9353 7.3821 15.4289 7.8352C15.773 8.14892 16.8451 10.3846 17.2591 11.6493C18.6253 15.8319 18.4159 20.3281 16.6656 24.4359C15.763 26.5422 15.1298 27.1944 14.2422 26.9355ZM8.65717 23.5148C8.7469 23.9081 9.06606 24.3015 9.43506 24.4658C9.59963 24.5405 9.87886 24.5803 10.0534 24.5654C10.6269 24.4907 10.9111 24.182 11.4846 23.0218C12.4819 20.9953 12.8409 19.4866 12.8459 17.2908C12.8509 15.1547 12.4669 13.4866 11.5295 11.5646C10.9211 10.3149 10.567 9.9713 9.88385 9.9713C9.47995 9.9713 9.35527 10.0161 9.06606 10.29C8.48265 10.8427 8.49759 11.1215 9.19074 12.5206C10.7665 15.7124 10.7515 18.8542 9.13587 22.1206C8.69706 23.0069 8.6023 23.2758 8.65717 23.5148ZM4.94713 22.1654C4.65292 22.0459 4.31883 21.6476 4.2191 21.299C4.10939 20.9107 4.19915 20.6019 4.63799 19.88C5.20642 18.9488 5.33609 18.4509 5.33609 17.236C5.33609 16.021 5.20642 15.5181 4.63799 14.592C4.4435 14.2783 4.25401 13.8999 4.20913 13.7505C4.02462 13.1381 4.53823 12.3862 5.22639 12.2568C5.8098 12.1472 6.20875 12.4061 6.74732 13.2427C8.29811 15.6626 8.29811 18.8891 6.74732 21.2891C6.19877 22.1306 5.5904 22.4293 4.94713 22.1654Z" fill="#005A44"/>
</g>
</g>
<defs>
<clipPath id="clip0_262_119">
<rect width="180" height="34.0336" fill="white" transform="translate(0.5)"/>
</clipPath>
</defs>
</svg>
