<svg width="191" height="40" viewBox="0 0 191 40" fill="none" xmlns="http://www.w3.org/2000/svg">
<path d="M8.03577 0H1.28149C0.91891 0 0.625 0.29391 0.625 0.656488V13.3838L8.03577 0Z" fill="#35293B"/>
<path d="M0.625 17.4775C0.646336 17.4784 0.667869 17.4789 0.689599 17.4789H10.9871C11.7932 17.4789 12.4265 18.1675 12.3578 18.9692L11.4667 29.3612C11.3401 30.838 13.323 31.4398 14.0413 30.1427L24.7414 10.8181C25.2482 9.90286 24.5851 8.7806 23.5375 8.7806H13.2399C12.4339 8.7806 11.8006 8.09201 11.8693 7.29037L12.4944 0H22.8859C32.4616 0 36.7542 12.0443 29.3482 18.133L23.5588 22.8928C23.1796 23.2046 23.1049 23.7572 23.3877 24.159L33.3779 38.3547C33.6844 38.7899 33.3733 39.3893 32.8412 39.3893H1.28149C0.91891 39.3893 0.625 39.0952 0.625 38.7328V17.4775Z" fill="#35293B"/>
<path d="M113.118 21.3231V31.2762H118.615V20.1014C118.615 18.784 118.328 17.6341 117.753 16.6519C117.203 15.6457 116.412 14.8672 115.382 14.3164C114.351 13.7413 113.154 13.4539 111.788 13.4539C110.447 13.4539 109.261 13.7413 108.232 14.3164C107.958 14.4626 107.7 14.6261 107.459 14.8062C107.328 14.9034 107.203 15.0056 107.081 15.1127V5.90839H101.584V31.2762H107.081V21.3231C107.081 20.7243 107.213 20.1973 107.477 19.7421C107.741 19.2629 108.1 18.9035 108.555 18.6641C109.01 18.4006 109.537 18.2688 110.135 18.2688C110.998 18.2688 111.705 18.5564 112.256 19.1311C112.831 19.6822 113.118 20.4127 113.118 21.3231Z" fill="#35293B"/>
<path fill-rule="evenodd" clip-rule="evenodd" d="M52.037 20.8201V31.2762H46.3965V5.90839H56.7441C58.4214 5.90839 59.8945 6.23184 61.1642 6.87835C62.4332 7.50122 63.4278 8.37567 64.1466 9.50141C64.8648 10.6272 65.2239 11.921 65.2239 13.382C65.2239 14.8672 64.8648 16.1728 64.1466 17.2985C63.4278 18.4006 62.422 19.2629 61.1281 19.8857C60.4066 20.2332 59.6142 20.4838 58.7509 20.6374L66.8776 31.2762H60.1939L52.6279 20.8201H52.037ZM52.037 16.6519H56.062C57.1878 16.6519 58.0505 16.3644 58.6492 15.7894C59.2715 15.2146 59.5834 14.436 59.5834 13.4539C59.5834 12.5438 59.284 11.7892 58.6846 11.1904C58.0859 10.5913 57.2239 10.2919 56.0981 10.2919H52.037V16.6519Z" fill="#35293B"/>
<path fill-rule="evenodd" clip-rule="evenodd" d="M70.5058 30.5217C71.9915 31.2881 73.68 31.6715 75.572 31.6715C77.034 31.6715 78.3752 31.4199 79.5969 30.9169C80.818 30.4136 81.8605 29.659 82.7231 28.6532L79.7046 25.6348C79.1774 26.2336 78.5669 26.6888 77.8717 27.0004C77.1771 27.2876 76.3991 27.4316 75.5359 27.4316C74.6023 27.4316 73.7876 27.2399 73.0931 26.8565C72.4221 26.4494 71.8956 25.8865 71.5122 25.1678C71.3915 24.9184 71.2917 24.653 71.2116 24.3712L83.7288 24.3414C83.8247 23.8863 83.8844 23.491 83.9081 23.1557C83.9251 23.0304 83.9383 22.9082 83.9494 22.7887C83.9553 22.7294 83.9593 22.671 83.9632 22.6133C83.9691 22.5265 83.9737 22.4412 83.9763 22.3576L83.979 22.2652L83.9803 22.1495C83.9803 20.4486 83.5975 18.9395 82.8308 17.622C82.0883 16.3045 81.0582 15.2746 79.7407 14.5319C78.4231 13.7895 76.9014 13.418 75.1774 13.418C73.4042 13.418 71.8116 13.8132 70.3982 14.6037C68.9848 15.3942 67.8589 16.4844 67.0205 17.8737C66.2058 19.2389 65.7988 20.7961 65.7988 22.5447C65.7988 24.2934 66.2183 25.8624 67.056 27.2517C67.895 28.6409 69.0452 29.7312 70.5058 30.5217ZM71.2129 20.5974C71.2398 20.5038 71.2687 20.4121 71.2995 20.3224C71.3521 20.1711 71.4105 20.0252 71.4761 19.8858C71.8359 19.1671 72.3269 18.616 72.9493 18.233C73.5959 17.8256 74.3509 17.622 75.2129 17.622C76.0269 17.622 76.7097 17.8019 77.2611 18.1612L77.3353 18.2054L77.4088 18.2525C77.4712 18.2939 77.5309 18.3375 77.5894 18.383C77.6465 18.4276 77.7023 18.4744 77.7561 18.5231C78.0903 18.8257 78.3561 19.2081 78.5544 19.6704C78.6752 19.9409 78.7724 20.2426 78.8465 20.5756L71.2129 20.5974Z" fill="#35293B"/>
<path d="M93.6414 31.6715C91.844 31.6715 90.2152 31.2762 88.7539 30.4857C87.2932 29.6953 86.1437 28.6051 85.3047 27.2158C84.4664 25.8265 84.0469 24.2693 84.0469 22.5447C84.0469 20.7961 84.4664 19.2389 85.3047 17.8737C86.1673 16.4844 87.3287 15.3942 88.79 14.6037C90.2513 13.8132 91.8919 13.418 93.713 13.418C95.0779 13.418 96.3232 13.6578 97.4497 14.1367C98.0235 14.364 98.5651 14.6508 99.0732 14.9973C99.5827 15.3452 100.06 15.7529 100.504 16.2209L96.9823 19.7422C96.5753 19.287 96.0961 18.9517 95.5453 18.736C95.2965 18.6344 95.0299 18.5568 94.7437 18.5029C94.6131 18.4782 94.4791 18.4587 94.3413 18.4442C94.1988 18.4292 94.0524 18.4196 93.9014 18.4154C93.839 18.4134 93.7767 18.4125 93.713 18.4125C93.5187 18.4125 93.3296 18.4234 93.1458 18.4449L93.0467 18.4577L92.985 18.4667C92.9213 18.4766 92.8576 18.4882 92.7946 18.5007C92.3639 18.5872 91.9635 18.7376 91.5925 18.9517C90.9938 19.287 90.5153 19.7659 90.1555 20.3887C89.82 20.9878 89.652 21.6943 89.652 22.5088C89.652 23.3233 89.82 24.042 90.1555 24.6645C90.5153 25.2873 91.0063 25.7785 91.6287 26.1378C92.251 26.4971 92.9462 26.6769 93.713 26.6769C94.4319 26.6769 95.066 26.5571 95.6168 26.3176C96.1919 26.0541 96.683 25.6948 97.09 25.2396L100.576 28.7609C99.6654 29.719 98.6354 30.4495 97.4858 30.9528C96.3357 31.4317 95.0542 31.6715 93.6414 31.6715Z" fill="#35293B"/>
<path fill-rule="evenodd" clip-rule="evenodd" d="M128.004 31.6355C126.4 31.6355 124.962 31.2402 123.693 30.4494C122.447 29.6589 121.453 28.5813 120.71 27.2157C119.992 25.8505 119.632 24.2933 119.632 22.5446C119.632 20.796 119.992 19.2388 120.71 17.8736C121.453 16.508 122.447 15.4303 123.693 14.6395C124.962 13.8491 126.4 13.4539 128.004 13.4539C129.178 13.4539 130.232 13.6814 131.166 14.1366C131.795 14.435 132.345 14.8107 132.819 15.2633V13.8132H138.208V31.2761H132.819V29.8612C132.495 30.1673 132.131 30.4385 131.728 30.6748C131.655 30.7181 131.579 30.7604 131.502 30.8014C131.405 30.8536 131.304 30.904 131.202 30.9527C130.244 31.4079 129.178 31.6355 128.004 31.6355ZM129.119 26.6768C130.293 26.6768 131.238 26.2935 131.957 25.5271C132.676 24.7366 133.035 23.7422 133.035 22.5446C133.035 22.1372 132.993 21.7538 132.909 21.3945C132.825 21.0352 132.699 20.6998 132.532 20.3886C132.22 19.7658 131.765 19.2869 131.166 18.9516C130.843 18.7494 130.489 18.6041 130.105 18.5156C129.806 18.4467 129.49 18.4124 129.154 18.4124C128.771 18.4124 128.409 18.4573 128.068 18.5471C127.86 18.6018 127.659 18.6733 127.467 18.7615C127.344 18.818 127.223 18.8814 127.106 18.9516C126.531 19.2869 126.064 19.7658 125.704 20.3886C125.37 21.0115 125.202 21.7301 125.202 22.5446C125.202 23.3351 125.37 24.042 125.704 24.6644C126.04 25.2873 126.507 25.7784 127.106 26.1377C127.705 26.497 128.376 26.6768 129.119 26.6768Z" fill="#35293B"/>
<path d="M146.139 13.8132H140.642V31.2761H146.139V21.6824C146.139 20.5563 146.403 19.718 146.929 19.167C147.481 18.5923 148.212 18.3047 149.121 18.3047C149.577 18.3047 149.984 18.3765 150.344 18.5204C150.702 18.6641 151.002 18.8676 151.242 19.1311L154.511 14.9989C154.033 14.4719 153.469 14.0888 152.823 13.8491C152.2 13.5856 151.469 13.4539 150.631 13.4539C148.714 13.4539 147.218 14.0171 146.139 15.1428V13.8132Z" fill="#35293B"/>
<path fill-rule="evenodd" clip-rule="evenodd" d="M161.45 39.109C159.533 39.109 157.844 38.7735 156.383 38.1032C154.946 37.4566 153.808 36.5342 152.97 35.3361L156.347 31.9586C156.97 32.7013 157.665 33.2642 158.431 33.6476C159.221 34.0304 160.167 34.2221 161.27 34.2221C162.635 34.2221 163.701 33.8873 164.467 33.2163C165.258 32.5455 165.654 31.5993 165.654 30.3776V29.2746C165.279 29.574 164.86 29.8336 164.396 30.0542C163.437 30.5094 162.372 30.737 161.198 30.737C159.592 30.737 158.168 30.3539 156.922 29.5871C155.676 28.8207 154.694 27.7786 153.975 26.4611C153.257 25.1437 152.897 23.6826 152.897 22.0776C152.897 20.4485 153.257 18.9875 153.975 17.6937C154.694 16.3763 155.676 15.3464 156.922 14.6036C158.168 13.8372 159.592 13.4539 161.198 13.4539C162.396 13.4539 163.462 13.6814 164.396 14.1366C164.482 14.1751 164.566 14.2151 164.649 14.2568C165.056 14.4626 165.427 14.7059 165.761 14.9867V13.8132H171.151V30.234C171.151 32.0307 170.732 33.5879 169.893 34.9048C169.055 36.2224 167.905 37.2524 166.444 37.9949C164.982 38.7381 163.318 39.109 161.45 39.109ZM162.24 25.8505C163.007 25.8505 163.665 25.6825 164.216 25.3473C164.357 25.2649 164.49 25.1757 164.614 25.0802C164.994 24.7875 165.293 24.4334 165.509 24.0179C165.602 23.8467 165.681 23.6695 165.746 23.4858C165.83 23.2476 165.892 22.9985 165.93 22.7389C165.962 22.5257 165.977 22.3052 165.977 22.0776C165.977 21.359 165.821 20.7121 165.509 20.1373C165.222 19.5622 164.79 19.1071 164.216 18.7717C163.665 18.4365 163.007 18.2688 162.24 18.2688C162.013 18.2688 161.796 18.2846 161.585 18.3156L161.474 18.3336L161.377 18.3515C161.169 18.3935 160.968 18.4515 160.775 18.5256C160.668 18.5669 160.563 18.6134 160.461 18.6647C160.394 18.6983 160.329 18.7339 160.264 18.7717C159.689 19.1071 159.246 19.5622 158.935 20.1373C158.772 20.4367 158.652 20.7556 158.574 21.0941C158.503 21.4054 158.467 21.7334 158.467 22.0776C158.467 22.7482 158.623 23.3829 158.935 23.982C159.246 24.5567 159.676 25.0119 160.228 25.3473C160.536 25.5274 160.873 25.6594 161.237 25.7428C161.551 25.8146 161.885 25.8505 162.24 25.8505Z" fill="#35293B"/>
<path fill-rule="evenodd" clip-rule="evenodd" d="M177.151 30.5217C178.635 31.2881 180.324 31.6715 182.216 31.6715C183.678 31.6715 185.02 31.4199 186.241 30.9169C187.463 30.4136 188.504 29.659 189.367 28.6532L186.348 25.6348C185.822 26.2336 185.211 26.6888 184.516 27.0004C183.822 27.2876 183.043 27.4316 182.181 27.4316C181.247 27.4316 180.432 27.2399 179.738 26.8565C179.258 26.566 178.853 26.1961 178.521 25.7468C178.468 25.6753 178.417 25.6015 178.368 25.5258C178.293 25.4114 178.222 25.2919 178.157 25.1678C178.036 24.9184 177.936 24.653 177.855 24.3712L190.373 24.3414C190.421 24.1167 190.459 23.9064 190.489 23.7109C190.52 23.5102 190.541 23.3253 190.553 23.1557C190.57 23.0291 190.583 22.9053 190.595 22.7848C190.614 22.563 190.625 22.3511 190.625 22.1495C190.625 20.4486 190.241 18.9395 189.475 17.622C188.732 16.3045 187.703 15.2746 186.385 14.5319C185.067 13.7895 183.547 13.418 181.822 13.418C180.049 13.418 178.456 13.8132 177.042 14.6037C175.629 15.3942 174.503 16.4844 173.665 17.8737C172.851 19.2389 172.443 20.7961 172.443 22.5447C172.443 24.2934 172.862 25.8624 173.701 27.2517C174.54 28.6409 175.689 29.7312 177.151 30.5217ZM177.858 20.5974C177.93 20.3454 178.017 20.1079 178.121 19.8858C178.326 19.4754 178.574 19.12 178.864 18.8193C178.966 18.7139 179.074 18.6151 179.187 18.5231C179.315 18.4176 179.451 18.3208 179.594 18.233C180.241 17.8256 180.995 17.622 181.857 17.622C182.672 17.622 183.355 17.8019 183.906 18.1612C184.126 18.2894 184.324 18.442 184.502 18.6193C184.789 18.9056 185.022 19.2559 185.199 19.6704C185.319 19.9409 185.416 20.2426 185.491 20.5756L177.858 20.5974Z" fill="#35293B"/>
</svg>
