<svg width="170" height="38" viewBox="0 0 170 38" fill="none" xmlns="http://www.w3.org/2000/svg">
<path fill-rule="evenodd" clip-rule="evenodd" d="M6.93207 9.52508C9.78693 5.68504 14.3585 3.1972 19.5112 3.1972C24.6941 3.1972 29.2889 5.71439 32.1403 9.59295C32.019 9.71776 31.9084 9.84709 31.8085 9.97627C31.2861 10.6526 30.8931 11.5239 30.5783 12.4086C29.9443 14.1879 29.4607 16.5122 29.0129 18.6886L28.9732 18.8843C28.5264 21.0567 28.1111 23.0771 27.6091 24.577C27.3835 25.2508 27.1696 25.7272 26.9799 26.0323C26.782 25.7247 26.5574 25.2426 26.3197 24.5591C25.7827 23.0162 25.3311 20.9176 24.8523 18.6768L24.8368 18.6034C24.3767 16.451 23.8887 14.1673 23.2802 12.4192C22.9745 11.5411 22.5993 10.6786 22.1088 10.0085C21.6273 9.35084 20.8258 8.60865 19.6536 8.60865C18.4888 8.60865 17.6836 9.34278 17.1952 9.99305C16.6951 10.6588 16.3052 11.5177 15.984 12.3963C15.3373 14.1655 14.8085 16.4797 14.3163 18.6591L14.2655 18.8843C13.7782 21.0433 13.3226 23.0617 12.8055 24.5644C12.6081 25.1383 12.4218 25.5748 12.2532 25.8868C12.0884 25.5763 11.9068 25.1426 11.7147 24.5736C11.2186 23.1029 10.784 21.141 10.3173 19.0338L10.2356 18.665C9.75196 16.4842 9.22728 14.1658 8.57129 12.3911C8.24536 11.5093 7.84671 10.646 7.33081 9.97714C7.214 9.82574 7.08124 9.67206 6.93207 9.52508ZM5.20422 12.4736C5.34019 12.7421 5.48402 13.0749 5.63275 13.4773C6.20055 15.0134 6.68162 17.1095 7.17699 19.3433L7.27338 19.7785C7.72442 21.8167 8.1936 23.9369 8.74622 25.5748C9.04014 26.4461 9.39508 27.2993 9.8516 27.9625C10.2833 28.5897 11.0577 29.3998 12.2486 29.3998C13.436 29.3998 14.2123 28.5936 14.6469 27.9693C15.1073 27.3076 15.4681 26.4553 15.768 25.5836C16.3428 23.9132 16.8322 21.7433 17.3006 19.6667L17.3723 19.3492C17.877 17.1141 18.3628 15.0138 18.9265 13.472C19.1876 12.7577 19.4321 12.2601 19.6449 11.9514C19.8466 12.2575 20.0771 12.7472 20.3214 13.4492C20.8585 14.9921 21.3098 17.0907 21.7886 19.3315L21.8043 19.4049C22.2643 21.5573 22.7523 23.841 23.3608 25.5889C23.6665 26.4674 24.0417 27.3299 24.5322 27.9998C25.0138 28.6576 25.8152 29.3998 26.9872 29.3998C28.1655 29.3998 28.9639 28.6508 29.4398 27.9872C29.923 27.3139 30.2863 26.4485 30.5798 25.5714C31.1439 23.8869 31.5927 21.701 32.02 19.6216L32.0816 19.3197C32.542 17.0816 32.9839 14.9913 33.5296 13.4598C33.648 13.1266 33.7644 12.8425 33.8755 12.6039C34.7118 14.5206 35.1755 16.637 35.1755 18.8617C35.1755 27.5128 28.1626 34.5262 19.5112 34.5262C10.86 34.5262 3.84674 27.5128 3.84674 18.8617C3.84674 16.5864 4.33183 14.4245 5.20422 12.4736ZM19.5112 0.0643311C9.12973 0.0643311 0.713867 8.48019 0.713867 18.8617C0.713867 29.2431 9.12973 37.659 19.5112 37.659C29.8929 37.659 38.3083 29.2431 38.3083 18.8617C38.3083 8.48019 29.8929 0.0643311 19.5112 0.0643311ZM19.8671 11.6912C19.8686 11.69 19.8693 11.6894 19.8693 11.6892C19.8693 11.6888 19.8656 11.6909 19.8583 11.6967C19.8623 11.6944 19.8652 11.6925 19.8671 11.6912ZM19.4363 11.6913C19.429 11.6868 19.4254 11.6838 19.4254 11.6834C19.4254 11.683 19.4291 11.6852 19.4363 11.6913ZM26.749 26.3296C26.749 26.3296 26.7524 26.3262 26.7592 26.3219C26.7524 26.3277 26.749 26.3301 26.749 26.3296ZM27.2045 26.317C27.2118 26.3214 27.2157 26.3243 27.2157 26.3248C27.2157 26.3253 27.2118 26.3229 27.2045 26.317ZM11.9275 26.3578C11.9275 26.3573 11.932 26.3529 11.941 26.3466C11.9321 26.3549 11.9275 26.3583 11.9275 26.3578ZM12.562 26.3495C12.571 26.3558 12.5754 26.3602 12.5754 26.3607C12.5754 26.3612 12.5709 26.3583 12.562 26.3495Z" fill="#FCBB01"/>
<path d="M48.6883 29.9902L44.1299 14.3978H48.1227L50.8261 25.6205L53.9695 14.3978H58.4333L61.5772 25.6205L64.3121 14.3978H68.3044L63.715 29.9902H59.534L56.2014 18.3274L52.8693 29.9902H48.6883Z" fill="#242A31"/>
<path d="M74.1622 30.3675C72.821 30.3675 71.7208 30.1574 70.8617 29.7383C70.0026 29.2983 69.3632 28.722 68.9441 28.0094C68.525 27.2968 68.3154 26.511 68.3154 25.6519C68.3154 24.2058 68.8811 23.0322 70.0128 22.131C71.1445 21.2298 72.8423 20.7792 75.1057 20.7792H79.0665V20.402C79.0665 19.3332 78.7624 18.5473 78.155 18.0443C77.5472 17.5413 76.7924 17.2898 75.8916 17.2898C75.0742 17.2898 74.3616 17.4889 73.7538 17.8871C73.146 18.2644 72.7686 18.8302 72.6221 19.5847H68.6924C68.7976 18.453 69.1745 17.468 69.8241 16.6297C70.4949 15.7914 71.354 15.1522 72.4018 14.7121C73.4501 14.251 74.6236 14.0205 75.9226 14.0205C78.1444 14.0205 79.8941 14.5758 81.1728 15.6866C82.451 16.7973 83.0904 18.3692 83.0904 20.402V29.9901H79.6637L79.2868 27.4754C78.8254 28.3136 78.1759 29.0049 77.3377 29.5501C76.5203 30.0949 75.4618 30.3675 74.1622 30.3675ZM75.0742 27.2236C76.2268 27.2236 77.1174 26.8462 77.7461 26.0919C78.3956 25.3376 78.8046 24.4047 78.9724 23.2941H75.5457C74.4766 23.2941 73.7121 23.4932 73.2508 23.8914C72.7899 24.2687 72.559 24.7404 72.559 25.306C72.559 25.9138 72.7899 26.3854 73.2508 26.7206C73.7121 27.0558 74.3194 27.2236 75.0742 27.2236Z" fill="#242A31"/>
<path d="M89.4243 29.9902L83.7031 14.3978H87.9152L91.8764 26.1866L95.8372 14.3978H100.05L94.2971 29.9902H89.4243Z" fill="#242A31"/>
<path d="M108.14 30.3675C106.569 30.3675 105.175 30.0318 103.959 29.3614C102.744 28.6905 101.79 27.7475 101.099 26.5319C100.407 25.3167 100.062 23.9124 100.062 22.3196C100.062 20.7059 100.397 19.2703 101.067 18.0129C101.759 16.7554 102.702 15.7809 103.897 15.0893C105.112 14.3768 106.537 14.0205 108.172 14.0205C109.702 14.0205 111.054 14.3558 112.227 15.0264C113.401 15.6971 114.313 16.6192 114.962 17.7928C115.632 18.9455 115.968 20.2343 115.968 21.6594C115.968 21.89 115.958 22.131 115.937 22.3825C115.937 22.634 115.926 22.8959 115.905 23.1684H104.054C104.138 24.3839 104.557 25.3376 105.311 26.0293C106.086 26.7206 107.019 27.0664 108.109 27.0664C108.926 27.0664 109.608 26.8884 110.152 26.5319C110.718 26.1549 111.137 25.6728 111.41 25.0858H115.497C115.203 26.071 114.71 26.9723 114.019 27.7897C113.348 28.5857 112.51 29.2144 111.504 29.6757C110.519 30.1366 109.398 30.3675 108.14 30.3675ZM108.172 17.2898C107.187 17.2898 106.317 17.5728 105.562 18.1386C104.808 18.6835 104.326 19.5218 104.116 20.6535H111.881C111.818 19.6266 111.441 18.8092 110.75 18.2015C110.058 17.5937 109.199 17.2898 108.172 17.2898Z" fill="#242A31"/>
<path d="M118.094 29.9901V7.35608H122.118V29.9901H118.094Z" fill="#242A31"/>
<path d="M132.547 30.3675C130.976 30.3675 129.582 30.0318 128.366 29.3614C127.151 28.6905 126.198 27.7475 125.506 26.5319C124.814 25.3167 124.469 23.9124 124.469 22.3196C124.469 20.7059 124.804 19.2703 125.474 18.0129C126.166 16.7554 127.109 15.7809 128.304 15.0893C129.52 14.3768 130.944 14.0205 132.579 14.0205C134.109 14.0205 135.461 14.3558 136.634 15.0264C137.808 15.6971 138.72 16.6192 139.369 17.7928C140.04 18.9455 140.375 20.2343 140.375 21.6594C140.375 21.89 140.365 22.131 140.344 22.3825C140.344 22.634 140.333 22.8959 140.312 23.1684H128.461C128.545 24.3839 128.964 25.3376 129.718 26.0293C130.494 26.7206 131.426 27.0664 132.516 27.0664C133.333 27.0664 134.015 26.8884 134.56 26.5319C135.125 26.1549 135.544 25.6728 135.817 25.0858H139.904C139.61 26.071 139.118 26.9723 138.426 27.7897C137.755 28.5857 136.917 29.2144 135.911 29.6757C134.926 30.1366 133.805 30.3675 132.547 30.3675ZM132.579 17.2898C131.594 17.2898 130.724 17.5728 129.97 18.1386C129.215 18.6835 128.733 19.5218 128.524 20.6535H136.289C136.225 19.6266 135.849 18.8092 135.157 18.2015C134.465 17.5937 133.606 17.2898 132.579 17.2898Z" fill="#242A31"/>
<path d="M148.946 30.3675C147.563 30.3675 146.347 30.1472 145.299 29.7073C144.251 29.2459 143.413 28.6173 142.784 27.8207C142.155 27.0247 141.778 26.1025 141.652 25.0547H145.708C145.833 25.6621 146.169 26.1865 146.714 26.6265C147.279 27.0456 148.003 27.2551 148.883 27.2551C149.763 27.2551 150.402 27.0771 150.8 26.7206C151.219 26.3645 151.429 25.9556 151.429 25.4947C151.429 24.8238 151.136 24.3732 150.549 24.1429C149.962 23.8914 149.145 23.6504 148.097 23.4199C147.426 23.2732 146.745 23.095 146.054 22.8855C145.362 22.6759 144.723 22.4139 144.136 22.0996C143.57 21.7642 143.109 21.3451 142.753 20.8421C142.396 20.3182 142.218 19.679 142.218 18.9245C142.218 17.5413 142.763 16.3782 143.853 15.4351C144.964 14.492 146.514 14.0205 148.506 14.0205C150.35 14.0205 151.817 14.4501 152.906 15.3093C154.017 16.1686 154.678 17.3527 154.887 18.8616H151.084C150.853 17.709 149.983 17.1327 148.474 17.1327C147.72 17.1327 147.133 17.2794 146.714 17.5728C146.316 17.8662 146.117 18.2329 146.117 18.673C146.117 19.1341 146.42 19.5008 147.028 19.7733C147.636 20.0457 148.443 20.2972 149.449 20.5278C150.538 20.7792 151.534 21.0622 152.435 21.3765C153.357 21.6699 154.091 22.1205 154.636 22.7283C155.181 23.3151 155.453 24.1639 155.453 25.2745C155.474 26.2389 155.222 27.1081 154.698 27.8838C154.175 28.659 153.42 29.2668 152.435 29.7073C151.45 30.1472 150.287 30.3675 148.946 30.3675Z" fill="#242A31"/>
<path d="M164.205 30.3675C162.822 30.3675 161.606 30.1472 160.559 29.7073C159.511 29.2459 158.673 28.6173 158.044 27.8207C157.415 27.0247 157.038 26.1025 156.912 25.0547H160.967C161.093 25.6621 161.428 26.1865 161.973 26.6265C162.539 27.0456 163.262 27.2551 164.142 27.2551C165.022 27.2551 165.662 27.0771 166.06 26.7206C166.479 26.3645 166.689 25.9556 166.689 25.4947C166.689 24.8238 166.395 24.3732 165.808 24.1429C165.222 23.8914 164.404 23.6504 163.357 23.4199C162.686 23.2732 162.005 23.095 161.313 22.8855C160.622 22.6759 159.982 22.4139 159.395 22.0996C158.83 21.7642 158.368 21.3451 158.012 20.8421C157.656 20.3182 157.478 19.679 157.478 18.9245C157.478 17.5413 158.023 16.3782 159.112 15.4351C160.223 14.492 161.774 14.0205 163.765 14.0205C165.609 14.0205 167.076 14.4501 168.166 15.3093C169.277 16.1686 169.937 17.3527 170.146 18.8616H166.343C166.112 17.709 165.243 17.1327 163.733 17.1327C162.979 17.1327 162.392 17.2794 161.973 17.5728C161.575 17.8662 161.376 18.2329 161.376 18.673C161.376 19.1341 161.68 19.5008 162.287 19.7733C162.895 20.0457 163.702 20.2972 164.708 20.5278C165.798 20.7792 166.793 21.0622 167.695 21.3765C168.617 21.6699 169.35 22.1205 169.895 22.7283C170.44 23.3151 170.712 24.1639 170.712 25.2745C170.733 26.2389 170.482 27.1081 169.958 27.8838C169.434 28.659 168.679 29.2668 167.695 29.7073C166.71 30.1472 165.546 30.3675 164.205 30.3675Z" fill="#242A31"/>
</svg>
