<svg width="181" height="41" viewBox="0 0 181 41" fill="none" xmlns="http://www.w3.org/2000/svg">
<g clip-path="url(#clip0_262_89)">
<path d="M14.1058 40.0204L4.02953 15.826C3.49821 14.5356 2.58736 13.6817 1.29699 13.2642L0.5 13.0365V12.4672H15.2444V13.0365L14.2197 13.2642C12.7395 13.6437 12.2841 14.6305 12.8534 16.2245L18.8308 32.1074L24.4097 16.3384C24.7134 15.5793 24.7893 14.9531 24.6375 14.4597C24.4857 13.9663 24.0303 13.6058 23.2712 13.3781L21.848 13.0365V12.4672H30.1025V13.0365L28.4516 13.435C27.7306 13.6248 27.1613 13.9094 26.7438 14.2889C26.3643 14.6685 26.0417 15.2377 25.776 15.9968L17.4076 40.0204H14.1058Z" fill="#AE594D"/>
<path d="M44.8981 11.6133C47.3652 11.6133 49.4714 12.1256 51.2171 13.1503C52.9628 14.1371 54.2911 15.5034 55.202 17.2492C56.1508 18.957 56.6253 20.9115 56.6253 23.1127C56.6253 23.5302 56.6063 23.9667 56.5683 24.4221C56.5303 24.8396 56.4543 25.2191 56.3408 25.5607H39.3761C39.414 29.6595 40.1351 32.6197 41.5394 34.4414C42.9815 36.2252 45.1068 37.117 47.9152 37.117C49.8128 37.117 51.3501 36.8134 52.5264 36.2062C53.7032 35.599 54.8035 34.7071 55.8284 33.5306L56.3978 34.0429C55.221 36.1303 53.6462 37.7622 51.6725 38.9387C49.7369 40.1152 47.4027 40.7035 44.6704 40.7035C41.9758 40.7035 39.5849 40.1342 37.4975 38.9957C35.4101 37.8192 33.7782 36.1493 32.6017 33.986C31.4252 31.8227 30.8369 29.242 30.8369 26.2438C30.8369 23.1317 31.5201 20.4941 32.8863 18.3308C34.2526 16.1296 35.9984 14.4597 38.1237 13.3211C40.287 12.1826 42.5451 11.6133 44.8981 11.6133ZM44.7273 12.7518C43.6267 12.7518 42.6779 13.0934 41.881 13.7765C41.1219 14.4217 40.5147 15.5982 40.0592 17.3061C39.6418 18.976 39.414 21.348 39.3761 24.4221H49.1109C49.4904 20.2853 49.3384 17.3061 48.6555 15.4844C47.9721 13.6627 46.6628 12.7518 44.7273 12.7518Z" fill="#AE594D"/>
<path d="M60.0322 39.8496V39.2803L60.8291 39.0526C62.1574 38.6731 62.8218 37.7432 62.8218 36.2631V18.4446C62.8218 17.6097 62.6888 17.0025 62.4233 16.6229C62.1574 16.2055 61.645 15.9208 60.8861 15.769L60.0322 15.5413V14.972L69.7667 11.6702L70.3361 12.2395L70.7915 15.6552C72.1198 14.4787 73.6191 13.5109 75.2888 12.7518C76.9586 11.9928 78.6098 11.6133 80.2415 11.6133C82.7466 11.6133 84.6628 12.2964 85.9911 13.6627C87.3574 15.029 88.0408 17.1163 88.0408 19.9248V36.32C88.0408 37.8002 88.7617 38.73 90.2039 39.1095L90.7163 39.2803V39.8496H77.2815V39.2803L78.0214 39.0526C79.3497 38.6351 80.014 37.7053 80.014 36.2631V18.1031C80.014 15.6741 78.7993 14.4597 76.3706 14.4597C74.7004 14.4597 72.8787 15.2946 70.9055 16.9645V36.32C70.9055 37.8002 71.5694 38.73 72.8977 39.1095L73.4101 39.2803V39.8496H60.0322Z" fill="#AE594D"/>
<path d="M100.344 8.65307C99.0541 8.65307 97.9537 8.25454 97.0429 7.45756C96.17 6.62264 95.7336 5.57896 95.7336 4.32653C95.7336 3.03616 96.17 1.99248 97.0429 1.19549C97.9537 0.398496 99.0541 0 100.344 0C101.635 0 102.717 0.398496 103.589 1.19549C104.462 1.99248 104.899 3.03616 104.899 4.32653C104.899 5.57896 104.462 6.62264 103.589 7.45756C102.717 8.25454 101.635 8.65307 100.344 8.65307ZM93.627 39.8496V39.2803L94.4243 39.0526C95.1832 38.8249 95.6956 38.4833 95.9611 38.0279C96.2645 37.5725 96.4165 36.9653 96.4165 36.2062V18.3877C96.4165 17.5907 96.2645 17.0025 95.9611 16.623C95.6956 16.2055 95.1832 15.9209 94.4243 15.769L93.627 15.5983V15.029L104.045 11.6702L104.614 12.2395L104.443 20.3233V36.2631C104.443 37.0222 104.576 37.6294 104.842 38.0848C105.146 38.5403 105.658 38.8818 106.379 39.1095L106.948 39.2803V39.8496H93.627Z" fill="#AE594D"/>
<path d="M124.156 40.7035C121.575 40.7035 119.222 40.1532 117.097 39.0526C115.009 37.914 113.34 36.2821 112.087 34.1568C110.873 31.9935 110.266 29.3559 110.266 26.2438C110.266 23.1697 110.93 20.551 112.258 18.3877C113.625 16.1865 115.427 14.5166 117.666 13.3781C119.944 12.2015 122.429 11.6133 125.124 11.6133C127.325 11.6133 129.185 11.9738 130.703 12.6949C132.221 13.416 133.378 14.3648 134.175 15.5413C134.972 16.6799 135.371 17.8754 135.371 19.1278C135.371 20.1904 135.048 21.0254 134.403 21.6326C133.758 22.2019 132.923 22.4865 131.898 22.4865C130.798 22.4865 129.906 22.0881 129.223 21.291C128.54 20.4941 128.141 19.4504 128.027 18.16C127.989 17.3251 128.008 16.6229 128.084 16.0537C128.16 15.4464 128.16 14.8392 128.084 14.232C127.932 13.5868 127.685 13.1693 127.344 12.9796C127.04 12.7518 126.604 12.638 126.035 12.638C123.719 12.638 121.917 13.6437 120.626 15.6552C119.374 17.6666 118.748 20.8736 118.748 25.276C118.748 29.1091 119.45 32.0504 120.854 34.0998C122.296 36.1113 124.498 37.117 127.458 37.117C129.242 37.117 130.684 36.7944 131.784 36.1493C132.885 35.5041 133.948 34.5363 134.972 33.2459L135.542 33.7014C134.593 35.9405 133.131 37.6673 131.158 38.8818C129.185 40.0962 126.85 40.7035 124.156 40.7035Z" fill="#AE594D"/>
<path d="M152.693 11.6133C155.16 11.6133 157.266 12.1256 159.012 13.1503C160.758 14.1371 162.086 15.5034 162.997 17.2492C163.946 18.957 164.42 20.9115 164.42 23.1127C164.42 23.5302 164.401 23.9667 164.363 24.4221C164.325 24.8396 164.249 25.2191 164.135 25.5607H147.171C147.209 29.6595 147.93 32.6197 149.334 34.4414C150.776 36.2252 152.902 37.117 155.71 37.117C157.608 37.117 159.145 36.8134 160.321 36.2062C161.498 35.599 162.599 34.7071 163.623 33.5306L164.192 34.0429C163.016 36.1303 161.441 37.7622 159.468 38.9387C157.532 40.1152 155.198 40.7035 152.465 40.7035C149.771 40.7035 147.379 40.1342 145.292 38.9957C143.205 37.8192 141.573 36.1493 140.397 33.986C139.22 31.8227 138.632 29.242 138.632 26.2438C138.632 23.1317 139.315 20.4941 140.681 18.3308C142.047 16.1296 143.793 14.4597 145.919 13.3211C148.082 12.1826 150.34 11.6133 152.693 11.6133ZM152.522 12.7518C151.421 12.7518 150.472 13.0934 149.676 13.7765C148.917 14.4217 148.309 15.5982 147.854 17.3061C147.436 18.976 147.209 21.348 147.171 24.4221H156.905C157.285 20.2853 157.133 17.3061 156.45 15.4844C155.767 13.6627 154.458 12.7518 152.522 12.7518Z" fill="#AE594D"/>
<path d="M175.227 40.7035C173.86 40.7035 172.703 40.2291 171.754 39.2803C170.805 38.3315 170.331 37.193 170.331 35.8646C170.331 34.5363 170.805 33.3788 171.754 32.392C172.703 31.4053 173.86 30.9119 175.227 30.9119C176.593 30.9119 177.751 31.4053 178.699 32.392C179.648 33.3788 180.123 34.5363 180.123 35.8646C180.123 37.193 179.648 38.3315 178.699 39.2803C177.751 40.2291 176.593 40.7035 175.227 40.7035Z" fill="#AE594D"/>
</g>
<defs>
<clipPath id="clip0_262_89">
<rect width="180" height="40.7035" fill="white" transform="translate(0.5)"/>
</clipPath>
</defs>
</svg>
